<svg xmlns="http://www.w3.org/2000/svg" xmlns:xlink="http://www.w3.org/1999/xlink" contentStyleType="text/css" height="861px" preserveAspectRatio="none" style="width:598px;height:861px;background:#FFFFFF;" version="1.1" viewBox="0 0 598 861" width="598px" zoomAndPan="magnify"><title>Backend Class Diagram &#8212; Custom Admin App</title><defs/><g><text fill="#000000" font-family="Tahoma" font-size="14" font-weight="bold" lengthAdjust="spacing" textLength="318.8691" x="132.5654" y="24.0068">Backend Class Diagram &#8212; Custom Admin App</text><!--cluster admin_pkg--><g id="cluster_admin_pkg"><path d="M8.5,43.8984 L113.502,43.8984 A3.75,3.75 0 0 1 116.002,46.3984 L123.002,66.7969 L588.5,66.7969 A2.5,2.5 0 0 1 591,69.2969 L591,716.3984 A2.5,2.5 0 0 1 588.5,718.8984 L8.5,718.8984 A2.5,2.5 0 0 1 6,716.3984 L6,46.3984 A2.5,2.5 0 0 1 8.5,43.8984 " fill="#FCE4EC" style="stroke:#000000;stroke-width:1.5;"/><line style="stroke:#000000;stroke-width:1.5;" x1="6" x2="123.002" y1="66.7969" y2="66.7969"/><text fill="#000000" font-family="Tahoma" font-size="14" font-weight="bold" lengthAdjust="spacing" textLength="104.002" x="10" y="59.9053">custom_admin</text></g><!--class Report--><g id="elem_Report"><rect codeLine="311" fill="#FAFAFA" height="256.543" id="Report" rx="2.5" ry="2.5" style="stroke:#333333;stroke-width:0.5;" width="306.2461" x="22" y="445.8984"/><ellipse cx="150.2676" cy="464.7793" fill="#ADD1B2" rx="11" ry="11" style="stroke:#181818;stroke-width:1;"/><path d="M153.0332,460.6543 Q153.1895,460.4355 153.377,460.3262 Q153.5645,460.2168 153.7832,460.2168 Q154.1582,460.2168 154.3926,460.4824 Q154.627,460.7324 154.627,461.3418 L154.627,462.7949 Q154.627,463.4043 154.3926,463.6699 Q154.1582,463.9355 153.7832,463.9355 Q153.4395,463.9355 153.2363,463.7324 Q153.0332,463.5449 152.9238,463.0293 Q152.877,462.6699 152.6895,462.4824 Q152.3613,462.1074 151.752,461.8887 Q151.1426,461.6699 150.5176,461.6699 Q149.752,461.6699 149.1113,461.998 Q148.4863,462.3262 147.9863,463.0762 Q147.502,463.8262 147.502,464.8574 L147.502,465.9512 Q147.502,467.1855 148.3926,468.0137 Q149.2832,468.8262 150.877,468.8262 Q151.8145,468.8262 152.4707,468.5762 Q152.8613,468.4199 153.2832,467.9824 Q153.5488,467.7168 153.6895,467.6387 Q153.8457,467.5605 154.0488,467.5605 Q154.377,467.5605 154.627,467.8262 Q154.8926,468.0762 154.8926,468.4199 Q154.8926,468.7637 154.5488,469.1699 Q154.0488,469.748 153.252,470.0762 Q152.1738,470.5293 150.877,470.5293 Q149.3613,470.5293 148.1582,469.9043 Q147.1738,469.4043 146.4863,468.3418 Q145.7988,467.2637 145.7988,465.9824 L145.7988,464.8262 Q145.7988,463.498 146.4082,462.3574 Q147.0332,461.2012 148.127,460.5918 Q149.2207,459.9668 150.4551,459.9668 Q151.1895,459.9668 151.8301,460.1387 Q152.4863,460.2949 153.0332,460.6543 Z " fill="#000000"/><text fill="#000000" font-family="Tahoma" font-size="12" font-style="italic" lengthAdjust="spacing" textLength="45.2109" x="168.7676" y="462.9043">&#171;Model&#187;</text><text fill="#000000" font-family="Tahoma" font-size="11" lengthAdjust="spacing" textLength="32.3125" x="175.2168" y="476.3882">Report</text><line style="stroke:#333333;stroke-width:0.5;" x1="23" x2="327.2461" y1="483.6602" y2="483.6602"/><text fill="#000000" font-family="Tahoma" font-size="14" lengthAdjust="spacing" textLength="86.8848" x="28" y="501.667">+id : int &#171;PK&#187;</text><text fill="#000000" font-family="Tahoma" font-size="14" lengthAdjust="spacing" textLength="127.873" x="28" y="518.5654">+reporter : FK(User)</text><text fill="#000000" font-family="Tahoma" font-size="14" lengthAdjust="spacing" textLength="121.2695" x="28" y="535.4639">+reason : TextField</text><text fill="#000000" font-family="Tahoma" font-size="14" lengthAdjust="spacing" textLength="293.918" x="28" y="552.3623">+status : varchar {pending,resolved,dismissed}</text><text fill="#000000" font-family="Tahoma" font-size="14" lengthAdjust="spacing" textLength="148.9551" x="28" y="569.2607">+target_user : FK(User)</text><text fill="#000000" font-family="Tahoma" font-size="14" lengthAdjust="spacing" textLength="294.2461" x="28" y="586.1592">+target_match_comment : FK(MatchComment)</text><text fill="#000000" font-family="Tahoma" font-size="14" lengthAdjust="spacing" textLength="291.0127" x="28" y="603.0576">+target_tournament_comment : FK(Comment)</text><text fill="#000000" font-family="Tahoma" font-size="14" lengthAdjust="spacing" textLength="241.9512" x="28" y="619.9561">+target_tournament : FK(Tournament)</text><text fill="#000000" font-family="Tahoma" font-size="14" lengthAdjust="spacing" textLength="152.8037" x="28" y="636.8545">+admin_note : TextField</text><text fill="#000000" font-family="Tahoma" font-size="14" lengthAdjust="spacing" textLength="143.7188" x="28" y="653.7529">+created_at : datetime</text><text fill="#000000" font-family="Tahoma" font-size="14" lengthAdjust="spacing" textLength="148.1279" x="28" y="670.6514">+updated_at : datetime</text><line style="stroke:#333333;stroke-width:1;" x1="23" x2="327.2461" y1="677.543" y2="677.543"/><text fill="#000000" font-family="Tahoma" font-size="14" lengthAdjust="spacing" textLength="97.125" x="28" y="695.5498">+__str__() : str</text></g><!--class AuditLog--><g id="elem_AuditLog"><rect codeLine="327" fill="#FAFAFA" height="188.9492" id="AuditLog" rx="2.5" ry="2.5" style="stroke:#333333;stroke-width:0.5;" width="210.5156" x="363.5" y="479.8984"/><ellipse cx="443.2437" cy="498.7793" fill="#ADD1B2" rx="11" ry="11" style="stroke:#181818;stroke-width:1;"/><path d="M446.0093,494.6543 Q446.1655,494.4355 446.353,494.3262 Q446.5405,494.2168 446.7593,494.2168 Q447.1343,494.2168 447.3687,494.4824 Q447.603,494.7324 447.603,495.3418 L447.603,496.7949 Q447.603,497.4043 447.3687,497.6699 Q447.1343,497.9355 446.7593,497.9355 Q446.4155,497.9355 446.2124,497.7324 Q446.0093,497.5449 445.8999,497.0293 Q445.853,496.6699 445.6655,496.4824 Q445.3374,496.1074 444.728,495.8887 Q444.1187,495.6699 443.4937,495.6699 Q442.728,495.6699 442.0874,495.998 Q441.4624,496.3262 440.9624,497.0762 Q440.478,497.8262 440.478,498.8574 L440.478,499.9512 Q440.478,501.1855 441.3687,502.0137 Q442.2593,502.8262 443.853,502.8262 Q444.7905,502.8262 445.4468,502.5762 Q445.8374,502.4199 446.2593,501.9824 Q446.5249,501.7168 446.6655,501.6387 Q446.8218,501.5605 447.0249,501.5605 Q447.353,501.5605 447.603,501.8262 Q447.8687,502.0762 447.8687,502.4199 Q447.8687,502.7637 447.5249,503.1699 Q447.0249,503.748 446.228,504.0762 Q445.1499,504.5293 443.853,504.5293 Q442.3374,504.5293 441.1343,503.9043 Q440.1499,503.4043 439.4624,502.3418 Q438.7749,501.2637 438.7749,499.9824 L438.7749,498.8262 Q438.7749,497.498 439.3843,496.3574 Q440.0093,495.2012 441.103,494.5918 Q442.1968,493.9668 443.4312,493.9668 Q444.1655,493.9668 444.8062,494.1387 Q445.4624,494.2949 446.0093,494.6543 Z " fill="#000000"/><text fill="#000000" font-family="Tahoma" font-size="12" font-style="italic" lengthAdjust="spacing" textLength="45.2109" x="462.4023" y="496.9043">&#171;Model&#187;</text><text fill="#000000" font-family="Tahoma" font-size="11" lengthAdjust="spacing" textLength="42.5283" x="463.7437" y="510.3882">AuditLog</text><line style="stroke:#333333;stroke-width:0.5;" x1="364.5" x2="573.0156" y1="517.6602" y2="517.6602"/><text fill="#000000" font-family="Tahoma" font-size="14" lengthAdjust="spacing" textLength="86.8848" x="369.5" y="535.667">+id : int &#171;PK&#187;</text><text fill="#000000" font-family="Tahoma" font-size="14" lengthAdjust="spacing" textLength="104.4463" x="369.5" y="552.5654">+user : FK(User)</text><text fill="#000000" font-family="Tahoma" font-size="14" lengthAdjust="spacing" textLength="133.0137" x="369.5" y="569.4639">+action : varchar(50)</text><text fill="#000000" font-family="Tahoma" font-size="14" lengthAdjust="spacing" textLength="178.0898" x="369.5" y="586.3623">+target_model : varchar(50)</text><text fill="#000000" font-family="Tahoma" font-size="14" lengthAdjust="spacing" textLength="119.6357" x="369.5" y="603.2607">+details : TextField</text><text fill="#000000" font-family="Tahoma" font-size="14" lengthAdjust="spacing" textLength="198.5156" x="369.5" y="620.1592">+ip_address : GenericIPAddress</text><text fill="#000000" font-family="Tahoma" font-size="14" lengthAdjust="spacing" textLength="143.7188" x="369.5" y="637.0576">+created_at : datetime</text><line style="stroke:#333333;stroke-width:1;" x1="364.5" x2="573.0156" y1="643.9492" y2="643.9492"/><text fill="#000000" font-family="Tahoma" font-size="14" lengthAdjust="spacing" textLength="97.125" x="369.5" y="661.9561">+__str__() : str</text></g><!--class AdminViews--><g id="elem_AdminViews"><rect codeLine="339" fill="#FAFAFA" height="290.3398" id="AdminViews" rx="2.5" ry="2.5" style="stroke:#333333;stroke-width:0.5;" width="298.8223" x="172.5" y="78.8984"/><ellipse cx="288.4102" cy="97.7793" fill="#ADD1B2" rx="11" ry="11" style="stroke:#181818;stroke-width:1;"/><path d="M291.1758,93.6543 Q291.332,93.4355 291.5195,93.3262 Q291.707,93.2168 291.9258,93.2168 Q292.3008,93.2168 292.5352,93.4824 Q292.7695,93.7324 292.7695,94.3418 L292.7695,95.7949 Q292.7695,96.4043 292.5352,96.6699 Q292.3008,96.9355 291.9258,96.9355 Q291.582,96.9355 291.3789,96.7324 Q291.1758,96.5449 291.0664,96.0293 Q291.0195,95.6699 290.832,95.4824 Q290.5039,95.1074 289.8945,94.8887 Q289.2852,94.6699 288.6602,94.6699 Q287.8945,94.6699 287.2539,94.998 Q286.6289,95.3262 286.1289,96.0762 Q285.6445,96.8262 285.6445,97.8574 L285.6445,98.9512 Q285.6445,100.1855 286.5352,101.0137 Q287.4258,101.8262 289.0195,101.8262 Q289.957,101.8262 290.6133,101.5762 Q291.0039,101.4199 291.4258,100.9824 Q291.6914,100.7168 291.832,100.6387 Q291.9883,100.5605 292.1914,100.5605 Q292.5195,100.5605 292.7695,100.8262 Q293.0352,101.0762 293.0352,101.4199 Q293.0352,101.7637 292.6914,102.1699 Q292.1914,102.748 291.3945,103.0762 Q290.3164,103.5293 289.0195,103.5293 Q287.5039,103.5293 286.3008,102.9043 Q285.3164,102.4043 284.6289,101.3418 Q283.9414,100.2637 283.9414,98.9824 L283.9414,97.8262 Q283.9414,96.498 284.5508,95.3574 Q285.1758,94.2012 286.2695,93.5918 Q287.3633,92.9668 288.5977,92.9668 Q289.332,92.9668 289.9727,93.1387 Q290.6289,93.2949 291.1758,93.6543 Z " fill="#000000"/><text fill="#000000" font-family="Tahoma" font-size="12" font-style="italic" lengthAdjust="spacing" textLength="44.2383" x="316.042" y="95.9043">&#171;Views&#187;</text><text fill="#000000" font-family="Tahoma" font-size="11" lengthAdjust="spacing" textLength="58.502" x="308.9102" y="109.3882">AdminViews</text><line style="stroke:#333333;stroke-width:0.5;" x1="173.5" x2="470.3223" y1="116.6602" y2="116.6602"/><line style="stroke:#333333;stroke-width:0.5;" x1="173.5" x2="470.3223" y1="124.6602" y2="124.6602"/><text fill="#000000" font-family="Tahoma" font-size="14" lengthAdjust="spacing" textLength="177.2695" x="178.5" y="142.667">+admin_dashboard(request)</text><text fill="#000000" font-family="Tahoma" font-size="14" lengthAdjust="spacing" textLength="209.5352" x="178.5" y="159.5654">+admin_tournament_list(request)</text><text fill="#000000" font-family="Tahoma" font-size="14" lengthAdjust="spacing" textLength="164.0967" x="178.5" y="176.4639">+admin_user_list(request)</text><text fill="#000000" font-family="Tahoma" font-size="14" lengthAdjust="spacing" textLength="203.6289" x="178.5" y="193.3623">+admin_user_detail(request, pk)</text><text fill="#000000" font-family="Tahoma" font-size="14" lengthAdjust="spacing" textLength="253.2578" x="178.5" y="210.2607">+admin_delete_tournament(request, pk)</text><text fill="#000000" font-family="Tahoma" font-size="14" lengthAdjust="spacing" textLength="286.8223" x="178.5" y="227.1592">+admin_force_finish_tournament(request, pk)</text><text fill="#000000" font-family="Tahoma" font-size="14" lengthAdjust="spacing" textLength="192.9854" x="178.5" y="244.0576">+admin_ban_user(request, pk)</text><text fill="#000000" font-family="Tahoma" font-size="14" lengthAdjust="spacing" textLength="208.5986" x="178.5" y="260.9561">+admin_unban_user(request, pk)</text><text fill="#000000" font-family="Tahoma" font-size="14" lengthAdjust="spacing" textLength="207.8193" x="178.5" y="277.8545">+admin_delete_user(request, pk)</text><text fill="#000000" font-family="Tahoma" font-size="14" lengthAdjust="spacing" textLength="175.8613" x="178.5" y="294.7529">+admin_audit_logs(request)</text><text fill="#000000" font-family="Tahoma" font-size="14" lengthAdjust="spacing" textLength="156.3857" x="178.5" y="311.6514">+admin_reports(request)</text><text fill="#000000" font-family="Tahoma" font-size="14" lengthAdjust="spacing" textLength="224.9092" x="178.5" y="328.5498">+admin_resolve_report(request, pk)</text><text fill="#000000" font-family="Tahoma" font-size="14" lengthAdjust="spacing" textLength="225.7432" x="178.5" y="345.4482">+admin_dismiss_report(request, pk)</text><text fill="#000000" font-family="Tahoma" font-size="14" lengthAdjust="spacing" textLength="238.7861" x="178.5" y="362.3467">+admin_delete_comment(request, pk)</text></g><g id="elem_GMN8"><path d="M36,765.8984 L36,854.3555 A0,0 0 0 0 36,854.3555 L313.6992,854.3555 A0,0 0 0 0 313.6992,854.3555 L313.6992,775.8984 L303.6992,765.8984 L179,765.8984 L175,703.0784 L171,765.8984 L36,765.8984 A0,0 0 0 0 36,765.8984 " fill="#FEFFDD" style="stroke:#181818;stroke-width:0.5;"/><path d="M303.6992,765.8984 L303.6992,775.8984 L313.6992,775.8984 L303.6992,765.8984 " fill="#FEFFDD" style="stroke:#181818;stroke-width:0.5;"/><text fill="#000000" font-family="Tahoma" font-size="13" lengthAdjust="spacing" textLength="154.2798" x="42" y="783.9048">&#3619;&#3629;&#3591;&#3619;&#3633;&#3610;&#3585;&#3634;&#3619;&#3619;&#3634;&#3618;&#3591;&#3634;&#3609; 4 &#3611;&#3619;&#3632;&#3648;&#3616;&#3607;:</text><text fill="#000000" font-family="Tahoma" font-size="13" lengthAdjust="spacing" textLength="131.4727" x="42" y="799.5962">- &#3612;&#3641;&#3657;&#3651;&#3594;&#3657;&#3591;&#3634;&#3609; (target_user)</text><text fill="#000000" font-family="Tahoma" font-size="13" lengthAdjust="spacing" textLength="200.9478" x="42" y="815.2876">- &#3649;&#3594;&#3607;&#3626;&#3604; (target_match_comment)</text><text fill="#000000" font-family="Tahoma" font-size="13" lengthAdjust="spacing" textLength="256.6992" x="42" y="830.979">- &#3588;&#3623;&#3634;&#3617;&#3588;&#3636;&#3604;&#3648;&#3627;&#3655;&#3609; (target_tournament_comment)</text><text fill="#000000" font-family="Tahoma" font-size="13" lengthAdjust="spacing" textLength="194.4033" x="42" y="846.6704">- &#3607;&#3633;&#3623;&#3619;&#3660;&#3609;&#3634;&#3648;&#3617;&#3609;&#3605;&#3660; (target_tournament)</text></g><!--link AdminViews to Report--><g id="link_AdminViews_Report"><path codeLine="357" d="M261.25,368.9084 C250.51,394.3984 241.7117,415.24 231.1717,440.23 " fill="none" id="AdminViews-to-Report" style="stroke:#181818;stroke-width:1;stroke-dasharray:7.0,7.0;"/><polygon fill="#181818" points="228.84,445.7584,236.0232,439.0203,230.7831,441.1514,228.652,435.9114,228.84,445.7584" style="stroke:#181818;stroke-width:1;"/><text fill="#000000" font-family="Tahoma" font-size="13" lengthAdjust="spacing" textLength="25.6953" x="249" y="412.9048">uses</text></g><!--link AdminViews to AuditLog--><g id="link_AdminViews_AuditLog"><path codeLine="358" d="M382.75,368.9084 C398.55,406.3884 412.8372,440.2605 427.2272,474.3605 " fill="none" id="AdminViews-to-AuditLog" style="stroke:#181818;stroke-width:1;stroke-dasharray:7.0,7.0;"/><polygon fill="#181818" points="429.56,479.8884,429.7462,470.0413,427.616,475.2818,422.3756,473.1517,429.56,479.8884" style="stroke:#181818;stroke-width:1;"/><text fill="#000000" font-family="Tahoma" font-size="13" lengthAdjust="spacing" textLength="25.6953" x="400" y="412.9048">uses</text></g><!--SRC=[bPNFRzCm5CVl-IkiSMd5DcrYNAQfKYahciRG10EEaHk_9bQJEDZEXa2LDe4qWJWEJVmuC7QO1482nC7zRop-4cmdArdNTbrwwAk_d_Vy_9xpAdeqpJ372IBGnNaisooL3t02Q6u7Hop1SvuO8YB2XEtHD4HT70keA1qSz4BEyfIqMCmuUXfHMTM360lHb9BJJYvX8s3f8_e2qD8eWbvwo3ntHiBTQ3Vjfz0O9y3BzLlkSUisSHTqUTdhUvwaCWON25A2MYxuNOf3kzNV_IFKoeLa2MgIXAQecMMUbnaMX-RWWPDyRAKvX0Lobf_rGfD8QtrblMNIT7iMEJ-4Z769rjQs686uqIWFOP-RY1AqYcXgvUtDHgEYSES6tEZjpTfZ0Rn-GSM2fKRRWUUoJI4c5L58B7DXn5tCWmXpz38pfpIDcUSWMBmBP9vGaL0XWFGhVXBp4AIVYqcxba22PH3v0KiIC9axSiikjOgLCHwIvJp5LhpeDej7GUuCVrVXelGfap2X584fb0JYOnk665FI12fwdf4f-i921VLz8Rdlr-g6D9PJ-jL6DtD2vNqMNhlLamkE0qbTcyjErculZUk7tMqYH41Y6ei91QAPkSd4t0iBt8CKE0qsjfl5qio5l6QXRDUUKDWJfXRkUwHKHLi95b67OKvg79xb8CPqldAlOYhaPD2MU1QaADOvD8-otcNG51iaLFQUZdSP3y3lqfIAQ6Qd3YuIcaxbwMnScV7L8BPNs8zPA2RNgHXCKm4tP4hmYioAEJGRMvoY722NsRuTx9MxjRZOE1- -g_OT4wFYy8KjPSyDaWwJTlIpRkdiOcjrgjKFhGwTyKkhZreTQFNR_JnrnbUd6kC3MZ7y9xV-Km_sjVgYrV6gYxDWbCzQ3VJWZHwyqkgjDOP-jSe4hf_pWmEBgMEjlcbrD6Gk3E4Xh5vhTUQYdJZxZt5nANpNWyFg5fSdylyOn-w4P_O0WtV6oSQpCKwS_TuiZWbJz-m_gQsWzmy0]--></g></svg>