<svg xmlns="http://www.w3.org/2000/svg" xmlns:xlink="http://www.w3.org/1999/xlink" contentStyleType="text/css" height="1250px" preserveAspectRatio="none" style="width:2142px;height:1250px;background:#FFFFFF;" version="1.1" viewBox="0 0 2142 1250" width="2142px" zoomAndPan="magnify"><title>BattleHub - Frontend Class Diagram</title><defs/><g><text fill="#000000" font-family="Tahoma" font-size="14" font-weight="bold" lengthAdjust="spacing" textLength="252.998" x="937.9147" y="24.0068">BattleHub - Frontend Class Diagram</text><!--cluster tmpl_pkg--><g id="cluster_tmpl_pkg"><path d="M8.5,43.8984 L76.6768,43.8984 A3.75,3.75 0 0 1 79.1768,46.3984 L86.1768,66.7969 L2109.5,66.7969 A2.5,2.5 0 0 1 2112,69.2969 L2112,460.3984 A2.5,2.5 0 0 1 2109.5,462.8984 L8.5,462.8984 A2.5,2.5 0 0 1 6,460.3984 L6,46.3984 A2.5,2.5 0 0 1 8.5,43.8984 " fill="#E3F2FD" style="stroke:#000000;stroke-width:1.5;"/><line style="stroke:#000000;stroke-width:1.5;" x1="6" x2="86.1768" y1="66.7969" y2="66.7969"/><text fill="#000000" font-family="Tahoma" font-size="14" font-weight="bold" lengthAdjust="spacing" textLength="67.1768" x="10" y="59.9053">tmpl_pkg</text></g><!--cluster js_pkg--><g id="cluster_js_pkg"><path d="M1126.5,527.8984 L1174.7568,527.8984 A3.75,3.75 0 0 1 1177.2568,530.3984 L1184.2568,550.7969 L1841.5,550.7969 A2.5,2.5 0 0 1 1844,553.2969 L1844,1241.3984 A2.5,2.5 0 0 1 1841.5,1243.8984 L1126.5,1243.8984 A2.5,2.5 0 0 1 1124,1241.3984 L1124,530.3984 A2.5,2.5 0 0 1 1126.5,527.8984 " fill="#E8F5E9" style="stroke:#000000;stroke-width:1.5;"/><line style="stroke:#000000;stroke-width:1.5;" x1="1124" x2="1184.2568" y1="550.7969" y2="550.7969"/><text fill="#000000" font-family="Tahoma" font-size="14" font-weight="bold" lengthAdjust="spacing" textLength="47.2568" x="1128" y="543.9053">js_pkg</text></g><!--class BasePage--><g id="elem_BasePage"><rect codeLine="551" fill="#FAFAFA" height="137.0469" id="BasePage" rx="2.5" ry="2.5" style="stroke:#333333;stroke-width:0.5;" width="218.9102" x="1123.5" y="301.8984"/><ellipse cx="1199.123" cy="320.1758" fill="#ADD1B2" rx="11" ry="11" style="stroke:#181818;stroke-width:1;"/><path d="M1201.8887,316.0508 Q1202.0449,315.832 1202.2324,315.7227 Q1202.4199,315.6133 1202.6387,315.6133 Q1203.0137,315.6133 1203.248,315.8789 Q1203.4824,316.1289 1203.4824,316.7383 L1203.4824,318.1914 Q1203.4824,318.8008 1203.248,319.0664 Q1203.0137,319.332 1202.6387,319.332 Q1202.2949,319.332 1202.0918,319.1289 Q1201.8887,318.9414 1201.7793,318.4258 Q1201.7324,318.0664 1201.5449,317.8789 Q1201.2168,317.5039 1200.6074,317.2852 Q1199.998,317.0664 1199.373,317.0664 Q1198.6074,317.0664 1197.9668,317.3945 Q1197.3418,317.7227 1196.8418,318.4727 Q1196.3574,319.2227 1196.3574,320.2539 L1196.3574,321.3477 Q1196.3574,322.582 1197.248,323.4102 Q1198.1387,324.2227 1199.7324,324.2227 Q1200.6699,324.2227 1201.3262,323.9727 Q1201.7168,323.8164 1202.1387,323.3789 Q1202.4043,323.1133 1202.5449,323.0352 Q1202.7012,322.957 1202.9043,322.957 Q1203.2324,322.957 1203.4824,323.2227 Q1203.748,323.4727 1203.748,323.8164 Q1203.748,324.1602 1203.4043,324.5664 Q1202.9043,325.1445 1202.1074,325.4727 Q1201.0293,325.9258 1199.7324,325.9258 Q1198.2168,325.9258 1197.0137,325.3008 Q1196.0293,324.8008 1195.3418,323.7383 Q1194.6543,322.6602 1194.6543,321.3789 L1194.6543,320.2227 Q1194.6543,318.8945 1195.2637,317.7539 Q1195.8887,316.5977 1196.9824,315.9883 Q1198.0762,315.3633 1199.3105,315.3633 Q1200.0449,315.3633 1200.6855,315.5352 Q1201.3418,315.6914 1201.8887,316.0508 Z " fill="#000000"/><text fill="#000000" font-family="Tahoma" font-size="12" font-style="italic" lengthAdjust="spacing" textLength="63.1641" x="1217.623" y="318.9043">&#171;Template&#187;</text><text fill="#000000" font-family="Tahoma" font-size="10" lengthAdjust="spacing" textLength="42.4219" x="1227.9941" y="331.3877">BasePage</text><line style="stroke:#333333;stroke-width:0.5;" x1="1124.5" x2="1341.4102" y1="338.4531" y2="338.4531"/><text fill="#000000" font-family="Tahoma" font-size="14" lengthAdjust="spacing" textLength="109.9424" x="1129.5" y="356.46">+navbar : Navbar</text><text fill="#000000" font-family="Tahoma" font-size="14" lengthAdjust="spacing" textLength="102.7783" x="1129.5" y="373.3584">+content : Block</text><text fill="#000000" font-family="Tahoma" font-size="14" lengthAdjust="spacing" textLength="93.126" x="1129.5" y="390.2568">+footer : Block</text><text fill="#000000" font-family="Tahoma" font-size="14" lengthAdjust="spacing" textLength="206.9102" x="1129.5" y="407.1553">+toast_container : ToastManager</text><line style="stroke:#333333;stroke-width:1;" x1="1124.5" x2="1341.4102" y1="414.0469" y2="414.0469"/><text fill="#000000" font-family="Tahoma" font-size="14" lengthAdjust="spacing" textLength="118.3438" x="1129.5" y="432.0537">Extends: base.html</text></g><!--class TournamentListPage--><g id="elem_TournamentListPage"><rect codeLine="560" fill="#FAFAFA" height="137.0469" id="TournamentListPage" rx="2.5" ry="2.5" style="stroke:#333333;stroke-width:0.5;" width="188.1143" x="1335" y="95.3984"/><ellipse cx="1379.5679" cy="113.6758" fill="#ADD1B2" rx="11" ry="11" style="stroke:#181818;stroke-width:1;"/><path d="M1382.3335,109.5508 Q1382.4897,109.332 1382.6772,109.2227 Q1382.8647,109.1133 1383.0835,109.1133 Q1383.4585,109.1133 1383.6929,109.3789 Q1383.9272,109.6289 1383.9272,110.2383 L1383.9272,111.6914 Q1383.9272,112.3008 1383.6929,112.5664 Q1383.4585,112.832 1383.0835,112.832 Q1382.7397,112.832 1382.5366,112.6289 Q1382.3335,112.4414 1382.2241,111.9258 Q1382.1772,111.5664 1381.9897,111.3789 Q1381.6616,111.0039 1381.0522,110.7852 Q1380.4429,110.5664 1379.8179,110.5664 Q1379.0522,110.5664 1378.4116,110.8945 Q1377.7866,111.2227 1377.2866,111.9727 Q1376.8022,112.7227 1376.8022,113.7539 L1376.8022,114.8477 Q1376.8022,116.082 1377.6929,116.9102 Q1378.5835,117.7227 1380.1772,117.7227 Q1381.1147,117.7227 1381.771,117.4727 Q1382.1616,117.3164 1382.5835,116.8789 Q1382.8491,116.6133 1382.9897,116.5352 Q1383.146,116.457 1383.3491,116.457 Q1383.6772,116.457 1383.9272,116.7227 Q1384.1929,116.9727 1384.1929,117.3164 Q1384.1929,117.6602 1383.8491,118.0664 Q1383.3491,118.6445 1382.5522,118.9727 Q1381.4741,119.4258 1380.1772,119.4258 Q1378.6616,119.4258 1377.4585,118.8008 Q1376.4741,118.3008 1375.7866,117.2383 Q1375.0991,116.1602 1375.0991,114.8789 L1375.0991,113.7227 Q1375.0991,112.3945 1375.7085,111.2539 Q1376.3335,110.0977 1377.4272,109.4883 Q1378.521,108.8633 1379.7554,108.8633 Q1380.4897,108.8633 1381.1304,109.0352 Q1381.7866,109.1914 1382.3335,109.5508 Z " fill="#000000"/><text fill="#000000" font-family="Tahoma" font-size="12" font-style="italic" lengthAdjust="spacing" textLength="63.1641" x="1413.7251" y="112.4043">&#171;Template&#187;</text><text fill="#000000" font-family="Tahoma" font-size="10" lengthAdjust="spacing" textLength="90.4785" x="1400.0679" y="124.8877">TournamentListPage</text><line style="stroke:#333333;stroke-width:0.5;" x1="1336" x2="1522.1143" y1="131.9531" y2="131.9531"/><text fill="#000000" font-family="Tahoma" font-size="14" lengthAdjust="spacing" textLength="163.4541" x="1341" y="149.96">+search_input : TextInput</text><text fill="#000000" font-family="Tahoma" font-size="14" lengthAdjust="spacing" textLength="176.1143" x="1341" y="166.8584">+category_filter : Dropdown</text><text fill="#000000" font-family="Tahoma" font-size="14" lengthAdjust="spacing" textLength="159.9131" x="1341" y="183.7568">+status_filter : Dropdown</text><text fill="#000000" font-family="Tahoma" font-size="14" lengthAdjust="spacing" textLength="175.5332" x="1341" y="200.6553">+tournament_cards : Card[]</text><text fill="#000000" font-family="Tahoma" font-size="14" lengthAdjust="spacing" textLength="146.8428" x="1341" y="217.5537">+pagination : Paginator</text><line style="stroke:#333333;stroke-width:0.5;" x1="1336" x2="1522.1143" y1="224.4453" y2="224.4453"/></g><!--class TournamentDetailPage--><g id="elem_TournamentDetailPage"><rect codeLine="568" fill="#FAFAFA" height="120.1484" id="TournamentDetailPage" rx="2.5" ry="2.5" style="stroke:#333333;stroke-width:0.5;" width="248.6328" x="1050.5" y="103.8984"/><ellipse cx="1120.2563" cy="122.1758" fill="#ADD1B2" rx="11" ry="11" style="stroke:#181818;stroke-width:1;"/><path d="M1123.022,118.0508 Q1123.1782,117.832 1123.3657,117.7227 Q1123.5532,117.6133 1123.772,117.6133 Q1124.147,117.6133 1124.3813,117.8789 Q1124.6157,118.1289 1124.6157,118.7383 L1124.6157,120.1914 Q1124.6157,120.8008 1124.3813,121.0664 Q1124.147,121.332 1123.772,121.332 Q1123.4282,121.332 1123.2251,121.1289 Q1123.022,120.9414 1122.9126,120.4258 Q1122.8657,120.0664 1122.6782,119.8789 Q1122.3501,119.5039 1121.7407,119.2852 Q1121.1313,119.0664 1120.5063,119.0664 Q1119.7407,119.0664 1119.1001,119.3945 Q1118.4751,119.7227 1117.9751,120.4727 Q1117.4907,121.2227 1117.4907,122.2539 L1117.4907,123.3477 Q1117.4907,124.582 1118.3813,125.4102 Q1119.272,126.2227 1120.8657,126.2227 Q1121.8032,126.2227 1122.4595,125.9727 Q1122.8501,125.8164 1123.272,125.3789 Q1123.5376,125.1133 1123.6782,125.0352 Q1123.8345,124.957 1124.0376,124.957 Q1124.3657,124.957 1124.6157,125.2227 Q1124.8813,125.4727 1124.8813,125.8164 Q1124.8813,126.1602 1124.5376,126.5664 Q1124.0376,127.1445 1123.2407,127.4727 Q1122.1626,127.9258 1120.8657,127.9258 Q1119.3501,127.9258 1118.147,127.3008 Q1117.1626,126.8008 1116.4751,125.7383 Q1115.7876,124.6602 1115.7876,123.3789 L1115.7876,122.2227 Q1115.7876,120.8945 1116.397,119.7539 Q1117.022,118.5977 1118.1157,117.9883 Q1119.2095,117.3633 1120.4438,117.3633 Q1121.1782,117.3633 1121.8188,117.5352 Q1122.4751,117.6914 1123.022,118.0508 Z " fill="#000000"/><text fill="#000000" font-family="Tahoma" font-size="12" font-style="italic" lengthAdjust="spacing" textLength="63.1641" x="1159.4844" y="120.9043">&#171;Template&#187;</text><text fill="#000000" font-family="Tahoma" font-size="10" lengthAdjust="spacing" textLength="100.6201" x="1140.7563" y="133.3877">TournamentDetailPage</text><line style="stroke:#333333;stroke-width:0.5;" x1="1051.5" x2="1298.1328" y1="140.4531" y2="140.4531"/><text fill="#000000" font-family="Tahoma" font-size="14" lengthAdjust="spacing" textLength="196.5059" x="1056.5" y="158.46">+tournament_info : InfoSection</text><text fill="#000000" font-family="Tahoma" font-size="14" lengthAdjust="spacing" textLength="146.7129" x="1056.5" y="175.3584">+competitor_grid : Grid</text><text fill="#000000" font-family="Tahoma" font-size="14" lengthAdjust="spacing" textLength="236.6328" x="1056.5" y="192.2568">+comment_section : CommentSection</text><text fill="#000000" font-family="Tahoma" font-size="14" lengthAdjust="spacing" textLength="193.5596" x="1056.5" y="209.1553">+action_buttons : ButtonGroup</text><line style="stroke:#333333;stroke-width:0.5;" x1="1051.5" x2="1298.1328" y1="216.0469" y2="216.0469"/></g><!--class CreateTournamentPage--><g id="elem_CreateTournamentPage"><rect codeLine="575" fill="#FAFAFA" height="86.3516" id="CreateTournamentPage" rx="2.5" ry="2.5" style="stroke:#333333;stroke-width:0.5;" width="240.457" x="775" y="120.8984"/><ellipse cx="838.9082" cy="139.1758" fill="#ADD1B2" rx="11" ry="11" style="stroke:#181818;stroke-width:1;"/><path d="M841.6738,135.0508 Q841.8301,134.832 842.0176,134.7227 Q842.2051,134.6133 842.4238,134.6133 Q842.7988,134.6133 843.0332,134.8789 Q843.2676,135.1289 843.2676,135.7383 L843.2676,137.1914 Q843.2676,137.8008 843.0332,138.0664 Q842.7988,138.332 842.4238,138.332 Q842.0801,138.332 841.877,138.1289 Q841.6738,137.9414 841.5645,137.4258 Q841.5176,137.0664 841.3301,136.8789 Q841.002,136.5039 840.3926,136.2852 Q839.7832,136.0664 839.1582,136.0664 Q838.3926,136.0664 837.752,136.3945 Q837.127,136.7227 836.627,137.4727 Q836.1426,138.2227 836.1426,139.2539 L836.1426,140.3477 Q836.1426,141.582 837.0332,142.4102 Q837.9238,143.2227 839.5176,143.2227 Q840.4551,143.2227 841.1113,142.9727 Q841.502,142.8164 841.9238,142.3789 Q842.1895,142.1133 842.3301,142.0352 Q842.4863,141.957 842.6895,141.957 Q843.0176,141.957 843.2676,142.2227 Q843.5332,142.4727 843.5332,142.8164 Q843.5332,143.1602 843.1895,143.5664 Q842.6895,144.1445 841.8926,144.4727 Q840.8145,144.9258 839.5176,144.9258 Q838.002,144.9258 836.7988,144.3008 Q835.8145,143.8008 835.127,142.7383 Q834.4395,141.6602 834.4395,140.3789 L834.4395,139.2227 Q834.4395,137.8945 835.0488,136.7539 Q835.6738,135.5977 836.7676,134.9883 Q837.8613,134.3633 839.0957,134.3633 Q839.8301,134.3633 840.4707,134.5352 Q841.127,134.6914 841.6738,135.0508 Z " fill="#000000"/><text fill="#000000" font-family="Tahoma" font-size="12" font-style="italic" lengthAdjust="spacing" textLength="63.1641" x="879.8965" y="137.9043">&#171;Template&#187;</text><text fill="#000000" font-family="Tahoma" font-size="10" lengthAdjust="spacing" textLength="104.1406" x="859.4082" y="150.3877">CreateTournamentPage</text><line style="stroke:#333333;stroke-width:0.5;" x1="776" x2="1014.457" y1="157.4531" y2="157.4531"/><text fill="#000000" font-family="Tahoma" font-size="14" lengthAdjust="spacing" textLength="164.001" x="781" y="175.46">+tournament_form : Form</text><text fill="#000000" font-family="Tahoma" font-size="14" lengthAdjust="spacing" textLength="228.457" x="781" y="192.3584">+thumbnail_preview : ImagePreview</text><line style="stroke:#333333;stroke-width:0.5;" x1="776" x2="1014.457" y1="199.25" y2="199.25"/></g><!--class AddCompetitorsPage--><g id="elem_AddCompetitorsPage"><rect codeLine="580" fill="#FAFAFA" height="120.1484" id="AddCompetitorsPage" rx="2.5" ry="2.5" style="stroke:#333333;stroke-width:0.5;" width="202.1826" x="538" y="103.8984"/><ellipse cx="588.9917" cy="122.1758" fill="#ADD1B2" rx="11" ry="11" style="stroke:#181818;stroke-width:1;"/><path d="M591.7573,118.0508 Q591.9136,117.832 592.1011,117.7227 Q592.2886,117.6133 592.5073,117.6133 Q592.8823,117.6133 593.1167,117.8789 Q593.3511,118.1289 593.3511,118.7383 L593.3511,120.1914 Q593.3511,120.8008 593.1167,121.0664 Q592.8823,121.332 592.5073,121.332 Q592.1636,121.332 591.9604,121.1289 Q591.7573,120.9414 591.6479,120.4258 Q591.6011,120.0664 591.4136,119.8789 Q591.0854,119.5039 590.4761,119.2852 Q589.8667,119.0664 589.2417,119.0664 Q588.4761,119.0664 587.8354,119.3945 Q587.2104,119.7227 586.7104,120.4727 Q586.2261,121.2227 586.2261,122.2539 L586.2261,123.3477 Q586.2261,124.582 587.1167,125.4102 Q588.0073,126.2227 589.6011,126.2227 Q590.5386,126.2227 591.1948,125.9727 Q591.5854,125.8164 592.0073,125.3789 Q592.2729,125.1133 592.4136,125.0352 Q592.5698,124.957 592.7729,124.957 Q593.1011,124.957 593.3511,125.2227 Q593.6167,125.4727 593.6167,125.8164 Q593.6167,126.1602 593.2729,126.5664 Q592.7729,127.1445 591.9761,127.4727 Q590.8979,127.9258 589.6011,127.9258 Q588.0854,127.9258 586.8823,127.3008 Q585.8979,126.8008 585.2104,125.7383 Q584.5229,124.6602 584.5229,123.3789 L584.5229,122.2227 Q584.5229,120.8945 585.1323,119.7539 Q585.7573,118.5977 586.8511,117.9883 Q587.9448,117.3633 589.1792,117.3633 Q589.9136,117.3633 590.5542,117.5352 Q591.2104,117.6914 591.7573,118.0508 Z " fill="#000000"/><text fill="#000000" font-family="Tahoma" font-size="12" font-style="italic" lengthAdjust="spacing" textLength="63.1641" x="623.7593" y="120.9043">&#171;Template&#187;</text><text fill="#000000" font-family="Tahoma" font-size="10" lengthAdjust="spacing" textLength="91.6992" x="609.4917" y="133.3877">AddCompetitorsPage</text><line style="stroke:#333333;stroke-width:0.5;" x1="539" x2="739.1826" y1="140.4531" y2="140.4531"/><text fill="#000000" font-family="Tahoma" font-size="14" lengthAdjust="spacing" textLength="178.3496" x="544" y="158.46">+progress_bar : ProgressBar</text><text fill="#000000" font-family="Tahoma" font-size="14" lengthAdjust="spacing" textLength="146.7129" x="544" y="175.3584">+competitor_grid : Grid</text><text fill="#000000" font-family="Tahoma" font-size="14" lengthAdjust="spacing" textLength="190.1826" x="544" y="192.2568">+upload_area : DragDropZone</text><text fill="#000000" font-family="Tahoma" font-size="14" lengthAdjust="spacing" textLength="156.4131" x="544" y="209.1553">+publish_button : Button</text><line style="stroke:#333333;stroke-width:0.5;" x1="539" x2="739.1826" y1="216.0469" y2="216.0469"/></g><!--class PlayPage--><g id="elem_PlayPage"><rect codeLine="587" fill="#FAFAFA" height="153.9453" id="PlayPage" rx="2.5" ry="2.5" style="stroke:#333333;stroke-width:0.5;" width="249.7949" x="1819" y="86.8984"/><ellipse cx="1910.0654" cy="105.1758" fill="#ADD1B2" rx="11" ry="11" style="stroke:#181818;stroke-width:1;"/><path d="M1912.8311,101.0508 Q1912.9873,100.832 1913.1748,100.7227 Q1913.3623,100.6133 1913.5811,100.6133 Q1913.9561,100.6133 1914.1904,100.8789 Q1914.4248,101.1289 1914.4248,101.7383 L1914.4248,103.1914 Q1914.4248,103.8008 1914.1904,104.0664 Q1913.9561,104.332 1913.5811,104.332 Q1913.2373,104.332 1913.0342,104.1289 Q1912.8311,103.9414 1912.7217,103.4258 Q1912.6748,103.0664 1912.4873,102.8789 Q1912.1592,102.5039 1911.5498,102.2852 Q1910.9404,102.0664 1910.3154,102.0664 Q1909.5498,102.0664 1908.9092,102.3945 Q1908.2842,102.7227 1907.7842,103.4727 Q1907.2998,104.2227 1907.2998,105.2539 L1907.2998,106.3477 Q1907.2998,107.582 1908.1904,108.4102 Q1909.0811,109.2227 1910.6748,109.2227 Q1911.6123,109.2227 1912.2686,108.9727 Q1912.6592,108.8164 1913.0811,108.3789 Q1913.3467,108.1133 1913.4873,108.0352 Q1913.6436,107.957 1913.8467,107.957 Q1914.1748,107.957 1914.4248,108.2227 Q1914.6904,108.4727 1914.6904,108.8164 Q1914.6904,109.1602 1914.3467,109.5664 Q1913.8467,110.1445 1913.0498,110.4727 Q1911.9717,110.9258 1910.6748,110.9258 Q1909.1592,110.9258 1907.9561,110.3008 Q1906.9717,109.8008 1906.2842,108.7383 Q1905.5967,107.6602 1905.5967,106.3789 L1905.5967,105.2227 Q1905.5967,103.8945 1906.2061,102.7539 Q1906.8311,101.5977 1907.9248,100.9883 Q1909.0186,100.3633 1910.2529,100.3633 Q1910.9873,100.3633 1911.6279,100.5352 Q1912.2842,100.6914 1912.8311,101.0508 Z " fill="#000000"/><text fill="#000000" font-family="Tahoma" font-size="12" font-style="italic" lengthAdjust="spacing" textLength="63.1641" x="1928.5654" y="103.9043">&#171;Template&#187;</text><text fill="#000000" font-family="Tahoma" font-size="10" lengthAdjust="spacing" textLength="39.5801" x="1940.3574" y="116.3877">PlayPage</text><line style="stroke:#333333;stroke-width:0.5;" x1="1820" x2="2067.7949" y1="123.4531" y2="123.4531"/><text fill="#000000" font-family="Tahoma" font-size="14" lengthAdjust="spacing" textLength="193.3135" x="1825" y="141.46">+match_display : MatchDisplay</text><text fill="#000000" font-family="Tahoma" font-size="14" lengthAdjust="spacing" textLength="237.7949" x="1825" y="158.3584">+countdown_timer : TimerComponent</text><text fill="#000000" font-family="Tahoma" font-size="14" lengthAdjust="spacing" textLength="196.8682" x="1825" y="175.2568">+vote_buttons : VoteButtonPair</text><text fill="#000000" font-family="Tahoma" font-size="14" lengthAdjust="spacing" textLength="195.8428" x="1825" y="192.1553">+vote_bar : VotePercentageBar</text><text fill="#000000" font-family="Tahoma" font-size="14" lengthAdjust="spacing" textLength="202.0908" x="1825" y="209.0537">+live_chat : LiveChatComponent</text><text fill="#000000" font-family="Tahoma" font-size="14" lengthAdjust="spacing" textLength="139.1523" x="1825" y="225.9521">+bracket_link : Button</text><line style="stroke:#333333;stroke-width:0.5;" x1="1820" x2="2067.7949" y1="232.8438" y2="232.8438"/></g><!--class LobbyPage--><g id="elem_LobbyPage"><rect codeLine="596" fill="#FAFAFA" height="103.25" id="LobbyPage" rx="2.5" ry="2.5" style="stroke:#333333;stroke-width:0.5;" width="225.165" x="1558.5" y="112.3984"/><ellipse cx="1637.2505" cy="130.6758" fill="#ADD1B2" rx="11" ry="11" style="stroke:#181818;stroke-width:1;"/><path d="M1640.0161,126.5508 Q1640.1724,126.332 1640.3599,126.2227 Q1640.5474,126.1133 1640.7661,126.1133 Q1641.1411,126.1133 1641.3755,126.3789 Q1641.6099,126.6289 1641.6099,127.2383 L1641.6099,128.6914 Q1641.6099,129.3008 1641.3755,129.5664 Q1641.1411,129.832 1640.7661,129.832 Q1640.4224,129.832 1640.2192,129.6289 Q1640.0161,129.4414 1639.9067,128.9258 Q1639.8599,128.5664 1639.6724,128.3789 Q1639.3442,128.0039 1638.7349,127.7852 Q1638.1255,127.5664 1637.5005,127.5664 Q1636.7349,127.5664 1636.0942,127.8945 Q1635.4692,128.2227 1634.9692,128.9727 Q1634.4849,129.7227 1634.4849,130.7539 L1634.4849,131.8477 Q1634.4849,133.082 1635.3755,133.9102 Q1636.2661,134.7227 1637.8599,134.7227 Q1638.7974,134.7227 1639.4536,134.4727 Q1639.8442,134.3164 1640.2661,133.8789 Q1640.5317,133.6133 1640.6724,133.5352 Q1640.8286,133.457 1641.0317,133.457 Q1641.3599,133.457 1641.6099,133.7227 Q1641.8755,133.9727 1641.8755,134.3164 Q1641.8755,134.6602 1641.5317,135.0664 Q1641.0317,135.6445 1640.2349,135.9727 Q1639.1567,136.4258 1637.8599,136.4258 Q1636.3442,136.4258 1635.1411,135.8008 Q1634.1567,135.3008 1633.4692,134.2383 Q1632.7817,133.1602 1632.7817,131.8789 L1632.7817,130.7227 Q1632.7817,129.3945 1633.3911,128.2539 Q1634.0161,127.0977 1635.1099,126.4883 Q1636.2036,125.8633 1637.438,125.8633 Q1638.1724,125.8633 1638.813,126.0352 Q1639.4692,126.1914 1640.0161,126.5508 Z " fill="#000000"/><text fill="#000000" font-family="Tahoma" font-size="12" font-style="italic" lengthAdjust="spacing" textLength="63.1641" x="1655.7505" y="129.4043">&#171;Template&#187;</text><text fill="#000000" font-family="Tahoma" font-size="10" lengthAdjust="spacing" textLength="47.9932" x="1663.3359" y="141.8877">LobbyPage</text><line style="stroke:#333333;stroke-width:0.5;" x1="1559.5" x2="1782.665" y1="148.9531" y2="148.9531"/><text fill="#000000" font-family="Tahoma" font-size="14" lengthAdjust="spacing" textLength="155.6406" x="1564.5" y="166.96">+pin_display : PinDisplay</text><text fill="#000000" font-family="Tahoma" font-size="14" lengthAdjust="spacing" textLength="213.165" x="1564.5" y="183.8584">+participant_list : ParticipantTable</text><text fill="#000000" font-family="Tahoma" font-size="14" lengthAdjust="spacing" textLength="140.6836" x="1564.5" y="200.7568">+start_button : Button</text><line style="stroke:#333333;stroke-width:0.5;" x1="1559.5" x2="1782.665" y1="207.6484" y2="207.6484"/></g><!--class SummaryPage--><g id="elem_SummaryPage"><rect codeLine="602" fill="#FAFAFA" height="103.25" id="SummaryPage" rx="2.5" ry="2.5" style="stroke:#333333;stroke-width:0.5;" width="235.8975" x="267" y="112.3984"/><ellipse cx="349.0337" cy="130.6758" fill="#ADD1B2" rx="11" ry="11" style="stroke:#181818;stroke-width:1;"/><path d="M351.7993,126.5508 Q351.9556,126.332 352.1431,126.2227 Q352.3306,126.1133 352.5493,126.1133 Q352.9243,126.1133 353.1587,126.3789 Q353.3931,126.6289 353.3931,127.2383 L353.3931,128.6914 Q353.3931,129.3008 353.1587,129.5664 Q352.9243,129.832 352.5493,129.832 Q352.2056,129.832 352.0024,129.6289 Q351.7993,129.4414 351.6899,128.9258 Q351.6431,128.5664 351.4556,128.3789 Q351.1274,128.0039 350.5181,127.7852 Q349.9087,127.5664 349.2837,127.5664 Q348.5181,127.5664 347.8774,127.8945 Q347.2524,128.2227 346.7524,128.9727 Q346.2681,129.7227 346.2681,130.7539 L346.2681,131.8477 Q346.2681,133.082 347.1587,133.9102 Q348.0493,134.7227 349.6431,134.7227 Q350.5806,134.7227 351.2368,134.4727 Q351.6274,134.3164 352.0493,133.8789 Q352.3149,133.6133 352.4556,133.5352 Q352.6118,133.457 352.8149,133.457 Q353.1431,133.457 353.3931,133.7227 Q353.6587,133.9727 353.6587,134.3164 Q353.6587,134.6602 353.3149,135.0664 Q352.8149,135.6445 352.0181,135.9727 Q350.9399,136.4258 349.6431,136.4258 Q348.1274,136.4258 346.9243,135.8008 Q345.9399,135.3008 345.2524,134.2383 Q344.5649,133.1602 344.5649,131.8789 L344.5649,130.7227 Q344.5649,129.3945 345.1743,128.2539 Q345.7993,127.0977 346.8931,126.4883 Q347.9868,125.8633 349.2212,125.8633 Q349.9556,125.8633 350.5962,126.0352 Q351.2524,126.1914 351.7993,126.5508 Z " fill="#000000"/><text fill="#000000" font-family="Tahoma" font-size="12" font-style="italic" lengthAdjust="spacing" textLength="63.1641" x="369.6167" y="129.4043">&#171;Template&#187;</text><text fill="#000000" font-family="Tahoma" font-size="10" lengthAdjust="spacing" textLength="63.3301" x="369.5337" y="141.8877">SummaryPage</text><line style="stroke:#333333;stroke-width:0.5;" x1="268" x2="501.8975" y1="148.9531" y2="148.9531"/><text fill="#000000" font-family="Tahoma" font-size="14" lengthAdjust="spacing" textLength="223.8975" x="273" y="166.96">+champion_display : ChampionCard</text><text fill="#000000" font-family="Tahoma" font-size="14" lengthAdjust="spacing" textLength="180.5371" x="273" y="183.8584">+results_table : ResultsTable</text><text fill="#000000" font-family="Tahoma" font-size="14" lengthAdjust="spacing" textLength="139.1523" x="273" y="200.7568">+bracket_link : Button</text><line style="stroke:#333333;stroke-width:0.5;" x1="268" x2="501.8975" y1="207.6484" y2="207.6484"/></g><!--class AdminDashboardPage--><g id="elem_AdminDashboardPage"><rect codeLine="608" fill="#FAFAFA" height="120.1484" id="AdminDashboardPage" rx="2.5" ry="2.5" style="stroke:#333333;stroke-width:0.5;" width="202.415" x="30" y="103.8984"/><ellipse cx="78.5859" cy="122.1758" fill="#ADD1B2" rx="11" ry="11" style="stroke:#181818;stroke-width:1;"/><path d="M81.3516,118.0508 Q81.5078,117.832 81.6953,117.7227 Q81.8828,117.6133 82.1016,117.6133 Q82.4766,117.6133 82.7109,117.8789 Q82.9453,118.1289 82.9453,118.7383 L82.9453,120.1914 Q82.9453,120.8008 82.7109,121.0664 Q82.4766,121.332 82.1016,121.332 Q81.7578,121.332 81.5547,121.1289 Q81.3516,120.9414 81.2422,120.4258 Q81.1953,120.0664 81.0078,119.8789 Q80.6797,119.5039 80.0703,119.2852 Q79.4609,119.0664 78.8359,119.0664 Q78.0703,119.0664 77.4297,119.3945 Q76.8047,119.7227 76.3047,120.4727 Q75.8203,121.2227 75.8203,122.2539 L75.8203,123.3477 Q75.8203,124.582 76.7109,125.4102 Q77.6016,126.2227 79.1953,126.2227 Q80.1328,126.2227 80.7891,125.9727 Q81.1797,125.8164 81.6016,125.3789 Q81.8672,125.1133 82.0078,125.0352 Q82.1641,124.957 82.3672,124.957 Q82.6953,124.957 82.9453,125.2227 Q83.2109,125.4727 83.2109,125.8164 Q83.2109,126.1602 82.8672,126.5664 Q82.3672,127.1445 81.5703,127.4727 Q80.4922,127.9258 79.1953,127.9258 Q77.6797,127.9258 76.4766,127.3008 Q75.4922,126.8008 74.8047,125.7383 Q74.1172,124.6602 74.1172,123.3789 L74.1172,122.2227 Q74.1172,120.8945 74.7266,119.7539 Q75.3516,118.5977 76.4453,117.9883 Q77.5391,117.3633 78.7734,117.3633 Q79.5078,117.3633 80.1484,117.5352 Q80.8047,117.6914 81.3516,118.0508 Z " fill="#000000"/><text fill="#000000" font-family="Tahoma" font-size="12" font-style="italic" lengthAdjust="spacing" textLength="63.1641" x="115.8755" y="120.9043">&#171;Template&#187;</text><text fill="#000000" font-family="Tahoma" font-size="10" lengthAdjust="spacing" textLength="96.7432" x="99.0859" y="133.3877">AdminDashboardPage</text><line style="stroke:#333333;stroke-width:0.5;" x1="31" x2="231.415" y1="140.4531" y2="140.4531"/><text fill="#000000" font-family="Tahoma" font-size="14" lengthAdjust="spacing" textLength="153.7061" x="36" y="158.46">+sidebar : AdminSidebar</text><text fill="#000000" font-family="Tahoma" font-size="14" lengthAdjust="spacing" textLength="190.415" x="36" y="175.3584">+stats_cards : StatsCardGroup</text><text fill="#000000" font-family="Tahoma" font-size="14" lengthAdjust="spacing" textLength="183.7773" x="36" y="192.2568">+activity_table : ActivityTable</text><line style="stroke:#333333;stroke-width:1;" x1="31" x2="231.415" y1="199.1484" y2="199.1484"/><text fill="#000000" font-family="Tahoma" font-size="14" lengthAdjust="spacing" textLength="163.8369" x="36" y="217.1553">Extends: base_admin.html</text></g><!--class TimerComponent--><g id="elem_TimerComponent"><rect codeLine="619" fill="#FAFAFA" height="170.8438" id="TimerComponent" rx="2.5" ry="2.5" style="stroke:#333333;stroke-width:0.5;" width="158.7676" x="1373.5" y="570.8984"/><ellipse cx="1411.3713" cy="589.1758" fill="#ADD1B2" rx="11" ry="11" style="stroke:#181818;stroke-width:1;"/><path d="M1414.137,585.0508 Q1414.2932,584.832 1414.4807,584.7227 Q1414.6682,584.6133 1414.887,584.6133 Q1415.262,584.6133 1415.4963,584.8789 Q1415.7307,585.1289 1415.7307,585.7383 L1415.7307,587.1914 Q1415.7307,587.8008 1415.4963,588.0664 Q1415.262,588.332 1414.887,588.332 Q1414.5432,588.332 1414.3401,588.1289 Q1414.137,587.9414 1414.0276,587.4258 Q1413.9807,587.0664 1413.7932,586.8789 Q1413.4651,586.5039 1412.8557,586.2852 Q1412.2463,586.0664 1411.6213,586.0664 Q1410.8557,586.0664 1410.2151,586.3945 Q1409.5901,586.7227 1409.0901,587.4727 Q1408.6057,588.2227 1408.6057,589.2539 L1408.6057,590.3477 Q1408.6057,591.582 1409.4963,592.4102 Q1410.387,593.2227 1411.9807,593.2227 Q1412.9182,593.2227 1413.5745,592.9727 Q1413.9651,592.8164 1414.387,592.3789 Q1414.6526,592.1133 1414.7932,592.0352 Q1414.9495,591.957 1415.1526,591.957 Q1415.4807,591.957 1415.7307,592.2227 Q1415.9963,592.4727 1415.9963,592.8164 Q1415.9963,593.1602 1415.6526,593.5664 Q1415.1526,594.1445 1414.3557,594.4727 Q1413.2776,594.9258 1411.9807,594.9258 Q1410.4651,594.9258 1409.262,594.3008 Q1408.2776,593.8008 1407.5901,592.7383 Q1406.9026,591.6602 1406.9026,590.3789 L1406.9026,589.2227 Q1406.9026,587.8945 1407.512,586.7539 Q1408.137,585.5977 1409.2307,584.9883 Q1410.3245,584.3633 1411.5588,584.3633 Q1412.2932,584.3633 1412.9338,584.5352 Q1413.5901,584.6914 1414.137,585.0508 Z " fill="#000000"/><text fill="#000000" font-family="Tahoma" font-size="12" font-style="italic" lengthAdjust="spacing" textLength="25.4414" x="1455.7043" y="587.9043">&#171;JS&#187;</text><text fill="#000000" font-family="Tahoma" font-size="10" lengthAdjust="spacing" textLength="75.9424" x="1430.4539" y="600.3877">TimerComponent</text><line style="stroke:#333333;stroke-width:0.5;" x1="1374.5" x2="1531.2676" y1="607.4531" y2="607.4531"/><text fill="#000000" font-family="Tahoma" font-size="14" lengthAdjust="spacing" textLength="85.7021" x="1379.5" y="625.46">-duration : int</text><text fill="#000000" font-family="Tahoma" font-size="14" lengthAdjust="spacing" textLength="146.7676" x="1379.5" y="642.3584">-remainingSeconds : int</text><text fill="#000000" font-family="Tahoma" font-size="14" lengthAdjust="spacing" textLength="146.1318" x="1379.5" y="659.2568">-timerInterval : Interval</text><line style="stroke:#333333;stroke-width:1;" x1="1374.5" x2="1531.2676" y1="666.1484" y2="666.1484"/><text fill="#000000" font-family="Tahoma" font-size="14" lengthAdjust="spacing" textLength="118.7539" x="1379.5" y="684.1553">+startCountdown()</text><text fill="#000000" font-family="Tahoma" font-size="14" lengthAdjust="spacing" textLength="117.0176" x="1379.5" y="701.0537">+stopCountdown()</text><text fill="#000000" font-family="Tahoma" font-size="14" lengthAdjust="spacing" textLength="109.9971" x="1379.5" y="717.9521">+onTimerExpire()</text><text fill="#000000" font-family="Tahoma" font-size="14" lengthAdjust="spacing" textLength="107.7891" x="1379.5" y="734.8506">+updateDisplay()</text></g><!--class VoteManager--><g id="elem_VoteManager"><rect codeLine="630" fill="#FAFAFA" height="170.8438" id="VoteManager" rx="2.5" ry="2.5" style="stroke:#333333;stroke-width:0.5;" width="209.3262" x="1405.5" y="843.3984"/><ellipse cx="1476.8237" cy="861.6758" fill="#ADD1B2" rx="11" ry="11" style="stroke:#181818;stroke-width:1;"/><path d="M1479.5894,857.5508 Q1479.7456,857.332 1479.9331,857.2227 Q1480.1206,857.1133 1480.3394,857.1133 Q1480.7144,857.1133 1480.9487,857.3789 Q1481.1831,857.6289 1481.1831,858.2383 L1481.1831,859.6914 Q1481.1831,860.3008 1480.9487,860.5664 Q1480.7144,860.832 1480.3394,860.832 Q1479.9956,860.832 1479.7925,860.6289 Q1479.5894,860.4414 1479.48,859.9258 Q1479.4331,859.5664 1479.2456,859.3789 Q1478.9175,859.0039 1478.3081,858.7852 Q1477.6987,858.5664 1477.0737,858.5664 Q1476.3081,858.5664 1475.6675,858.8945 Q1475.0425,859.2227 1474.5425,859.9727 Q1474.0581,860.7227 1474.0581,861.7539 L1474.0581,862.8477 Q1474.0581,864.082 1474.9487,864.9102 Q1475.8394,865.7227 1477.4331,865.7227 Q1478.3706,865.7227 1479.0269,865.4727 Q1479.4175,865.3164 1479.8394,864.8789 Q1480.105,864.6133 1480.2456,864.5352 Q1480.4019,864.457 1480.605,864.457 Q1480.9331,864.457 1481.1831,864.7227 Q1481.4487,864.9727 1481.4487,865.3164 Q1481.4487,865.6602 1481.105,866.0664 Q1480.605,866.6445 1479.8081,866.9727 Q1478.73,867.4258 1477.4331,867.4258 Q1475.9175,867.4258 1474.7144,866.8008 Q1473.73,866.3008 1473.0425,865.2383 Q1472.355,864.1602 1472.355,862.8789 L1472.355,861.7227 Q1472.355,860.3945 1472.9644,859.2539 Q1473.5894,858.0977 1474.6831,857.4883 Q1475.7769,856.8633 1477.0112,856.8633 Q1477.7456,856.8633 1478.3862,857.0352 Q1479.0425,857.1914 1479.5894,857.5508 Z " fill="#000000"/><text fill="#000000" font-family="Tahoma" font-size="12" font-style="italic" lengthAdjust="spacing" textLength="25.4414" x="1513.6924" y="860.4043">&#171;JS&#187;</text><text fill="#000000" font-family="Tahoma" font-size="10" lengthAdjust="spacing" textLength="58.1787" x="1497.3237" y="872.8877">VoteManager</text><line style="stroke:#333333;stroke-width:0.5;" x1="1406.5" x2="1613.8262" y1="879.9531" y2="879.9531"/><text fill="#000000" font-family="Tahoma" font-size="14" lengthAdjust="spacing" textLength="85.4902" x="1411.5" y="897.96">-matchId : int</text><text fill="#000000" font-family="Tahoma" font-size="14" lengthAdjust="spacing" textLength="119.3418" x="1411.5" y="914.8584">-tournamentId : int</text><text fill="#000000" font-family="Tahoma" font-size="14" lengthAdjust="spacing" textLength="124.5986" x="1411.5" y="931.7568">-hasVoted : boolean</text><line style="stroke:#333333;stroke-width:1;" x1="1406.5" x2="1613.8262" y1="938.6484" y2="938.6484"/><text fill="#000000" font-family="Tahoma" font-size="14" lengthAdjust="spacing" textLength="197.3262" x="1411.5" y="956.6553">+submitVote(competitorChoice)</text><text fill="#000000" font-family="Tahoma" font-size="14" lengthAdjust="spacing" textLength="170.3242" x="1411.5" y="973.5537">+fetchVoteUpdate() : JSON</text><text fill="#000000" font-family="Tahoma" font-size="14" lengthAdjust="spacing" textLength="173.8994" x="1411.5" y="990.4521">+updateVoteBar(pct1, pct2)</text><text fill="#000000" font-family="Tahoma" font-size="14" lengthAdjust="spacing" textLength="112.8955" x="1411.5" y="1007.3506">+pollForUpdates()</text></g><!--class LiveChatComponent--><g id="elem_LiveChatComponent"><rect codeLine="641" fill="#FAFAFA" height="187.7422" id="LiveChatComponent" rx="2.5" ry="2.5" style="stroke:#333333;stroke-width:0.5;" width="169.6162" x="1650" y="834.8984"/><ellipse cx="1687.2227" cy="853.1758" fill="#ADD1B2" rx="11" ry="11" style="stroke:#181818;stroke-width:1;"/><path d="M1689.9883,849.0508 Q1690.1446,848.832 1690.3321,848.7227 Q1690.5196,848.6133 1690.7383,848.6133 Q1691.1133,848.6133 1691.3477,848.8789 Q1691.5821,849.1289 1691.5821,849.7383 L1691.5821,851.1914 Q1691.5821,851.8008 1691.3477,852.0664 Q1691.1133,852.332 1690.7383,852.332 Q1690.3946,852.332 1690.1915,852.1289 Q1689.9883,851.9414 1689.879,851.4258 Q1689.8321,851.0664 1689.6446,850.8789 Q1689.3165,850.5039 1688.7071,850.2852 Q1688.0977,850.0664 1687.4727,850.0664 Q1686.7071,850.0664 1686.0665,850.3945 Q1685.4415,850.7227 1684.9415,851.4727 Q1684.4571,852.2227 1684.4571,853.2539 L1684.4571,854.3477 Q1684.4571,855.582 1685.3477,856.4102 Q1686.2383,857.2227 1687.8321,857.2227 Q1688.7696,857.2227 1689.4258,856.9727 Q1689.8165,856.8164 1690.2383,856.3789 Q1690.504,856.1133 1690.6446,856.0352 Q1690.8008,855.957 1691.004,855.957 Q1691.3321,855.957 1691.5821,856.2227 Q1691.8477,856.4727 1691.8477,856.8164 Q1691.8477,857.1602 1691.504,857.5664 Q1691.004,858.1445 1690.2071,858.4727 Q1689.129,858.9258 1687.8321,858.9258 Q1686.3165,858.9258 1685.1133,858.3008 Q1684.129,857.8008 1683.4415,856.7383 Q1682.754,855.6602 1682.754,854.3789 L1682.754,853.2227 Q1682.754,851.8945 1683.3633,850.7539 Q1683.9883,849.5977 1685.0821,848.9883 Q1686.1758,848.3633 1687.4102,848.3633 Q1688.1446,848.3633 1688.7852,848.5352 Q1689.4415,848.6914 1689.9883,849.0508 Z " fill="#000000"/><text fill="#000000" font-family="Tahoma" font-size="12" font-style="italic" lengthAdjust="spacing" textLength="25.4414" x="1737.5566" y="851.9043">&#171;JS&#187;</text><text fill="#000000" font-family="Tahoma" font-size="10" lengthAdjust="spacing" textLength="88.2324" x="1706.1611" y="864.3877">LiveChatComponent</text><line style="stroke:#333333;stroke-width:0.5;" x1="1651" x2="1818.6162" y1="871.4531" y2="871.4531"/><text fill="#000000" font-family="Tahoma" font-size="14" lengthAdjust="spacing" textLength="85.4902" x="1656" y="889.46">-matchId : int</text><text fill="#000000" font-family="Tahoma" font-size="14" lengthAdjust="spacing" textLength="154.3896" x="1656" y="906.3584">-chatContainer : Element</text><text fill="#000000" font-family="Tahoma" font-size="14" lengthAdjust="spacing" textLength="154.5605" x="1656" y="923.2568">-pollingInterval : Interval</text><line style="stroke:#333333;stroke-width:1;" x1="1651" x2="1818.6162" y1="930.1484" y2="930.1484"/><text fill="#000000" font-family="Tahoma" font-size="14" lengthAdjust="spacing" textLength="126.8408" x="1656" y="948.1553">+sendMessage(text)</text><text fill="#000000" font-family="Tahoma" font-size="14" lengthAdjust="spacing" textLength="157.6162" x="1656" y="965.0537">+fetchMessages() : JSON</text><text fill="#000000" font-family="Tahoma" font-size="14" lengthAdjust="spacing" textLength="145.4961" x="1656" y="981.9521">+appendMessage(msg)</text><text fill="#000000" font-family="Tahoma" font-size="14" lengthAdjust="spacing" textLength="89.373" x="1656" y="998.8506">+startPolling()</text><text fill="#000000" font-family="Tahoma" font-size="14" lengthAdjust="spacing" textLength="87.6367" x="1656" y="1015.749">+stopPolling()</text></g><!--class LobbyPoller--><g id="elem_LobbyPoller"><rect codeLine="653" fill="#FAFAFA" height="170.8438" id="LobbyPoller" rx="2.5" ry="2.5" style="stroke:#333333;stroke-width:0.5;" width="214.0566" x="1156" y="843.3984"/><ellipse cx="1233.3682" cy="861.6758" fill="#ADD1B2" rx="11" ry="11" style="stroke:#181818;stroke-width:1;"/><path d="M1236.1338,857.5508 Q1236.29,857.332 1236.4775,857.2227 Q1236.665,857.1133 1236.8838,857.1133 Q1237.2588,857.1133 1237.4932,857.3789 Q1237.7275,857.6289 1237.7275,858.2383 L1237.7275,859.6914 Q1237.7275,860.3008 1237.4932,860.5664 Q1237.2588,860.832 1236.8838,860.832 Q1236.54,860.832 1236.3369,860.6289 Q1236.1338,860.4414 1236.0244,859.9258 Q1235.9775,859.5664 1235.79,859.3789 Q1235.4619,859.0039 1234.8525,858.7852 Q1234.2432,858.5664 1233.6182,858.5664 Q1232.8525,858.5664 1232.2119,858.8945 Q1231.5869,859.2227 1231.0869,859.9727 Q1230.6025,860.7227 1230.6025,861.7539 L1230.6025,862.8477 Q1230.6025,864.082 1231.4932,864.9102 Q1232.3838,865.7227 1233.9775,865.7227 Q1234.915,865.7227 1235.5713,865.4727 Q1235.9619,865.3164 1236.3838,864.8789 Q1236.6494,864.6133 1236.79,864.5352 Q1236.9463,864.457 1237.1494,864.457 Q1237.4775,864.457 1237.7275,864.7227 Q1237.9932,864.9727 1237.9932,865.3164 Q1237.9932,865.6602 1237.6494,866.0664 Q1237.1494,866.6445 1236.3525,866.9727 Q1235.2744,867.4258 1233.9775,867.4258 Q1232.4619,867.4258 1231.2588,866.8008 Q1230.2744,866.3008 1229.5869,865.2383 Q1228.8994,864.1602 1228.8994,862.8789 L1228.8994,861.7227 Q1228.8994,860.3945 1229.5088,859.2539 Q1230.1338,858.0977 1231.2275,857.4883 Q1232.3213,856.8633 1233.5557,856.8633 Q1234.29,856.8633 1234.9307,857.0352 Q1235.5869,857.1914 1236.1338,857.5508 Z " fill="#000000"/><text fill="#000000" font-family="Tahoma" font-size="12" font-style="italic" lengthAdjust="spacing" textLength="25.4414" x="1266.5576" y="860.4043">&#171;JS&#187;</text><text fill="#000000" font-family="Tahoma" font-size="10" lengthAdjust="spacing" textLength="50.8203" x="1253.8682" y="872.8877">LobbyPoller</text><line style="stroke:#333333;stroke-width:0.5;" x1="1157" x2="1369.0566" y1="879.9531" y2="879.9531"/><text fill="#000000" font-family="Tahoma" font-size="14" lengthAdjust="spacing" textLength="119.3418" x="1162" y="897.96">-tournamentId : int</text><text fill="#000000" font-family="Tahoma" font-size="14" lengthAdjust="spacing" textLength="154.5605" x="1162" y="914.8584">-pollingInterval : Interval</text><line style="stroke:#333333;stroke-width:1;" x1="1157" x2="1369.0566" y1="921.75" y2="921.75"/><text fill="#000000" font-family="Tahoma" font-size="14" lengthAdjust="spacing" textLength="202.0566" x="1162" y="939.7568">+fetchParticipantStatus() : JSON</text><text fill="#000000" font-family="Tahoma" font-size="14" lengthAdjust="spacing" textLength="177.0303" x="1162" y="956.6553">+updateParticipantList(data)</text><text fill="#000000" font-family="Tahoma" font-size="14" lengthAdjust="spacing" textLength="176.0391" x="1162" y="973.5537">+checkTournamentStarted()</text><text fill="#000000" font-family="Tahoma" font-size="14" lengthAdjust="spacing" textLength="89.373" x="1162" y="990.4521">+startPolling()</text><text fill="#000000" font-family="Tahoma" font-size="14" lengthAdjust="spacing" textLength="108.8281" x="1162" y="1007.3506">+redirectToPlay()</text></g><!--class AJAXClient--><g id="elem_AJAXClient"><rect codeLine="664" fill="#FAFAFA" height="120.1484" id="AJAXClient" rx="2.5" ry="2.5" style="stroke:#333333;stroke-width:0.5;" width="176.5479" x="1421.5" y="1099.8984"/><ellipse cx="1482.1621" cy="1118.1758" fill="#ADD1B2" rx="11" ry="11" style="stroke:#181818;stroke-width:1;"/><path d="M1484.9277,1114.0508 Q1485.084,1113.832 1485.2715,1113.7227 Q1485.459,1113.6133 1485.6777,1113.6133 Q1486.0527,1113.6133 1486.2871,1113.8789 Q1486.5215,1114.1289 1486.5215,1114.7383 L1486.5215,1116.1914 Q1486.5215,1116.8008 1486.2871,1117.0664 Q1486.0527,1117.332 1485.6777,1117.332 Q1485.334,1117.332 1485.1309,1117.1289 Q1484.9277,1116.9414 1484.8184,1116.4258 Q1484.7715,1116.0664 1484.584,1115.8789 Q1484.2559,1115.5039 1483.6465,1115.2852 Q1483.0371,1115.0664 1482.4121,1115.0664 Q1481.6465,1115.0664 1481.0059,1115.3945 Q1480.3809,1115.7227 1479.8809,1116.4727 Q1479.3965,1117.2227 1479.3965,1118.2539 L1479.3965,1119.3477 Q1479.3965,1120.582 1480.2871,1121.4102 Q1481.1777,1122.2227 1482.7715,1122.2227 Q1483.709,1122.2227 1484.3652,1121.9727 Q1484.7559,1121.8164 1485.1777,1121.3789 Q1485.4434,1121.1133 1485.584,1121.0352 Q1485.7402,1120.957 1485.9434,1120.957 Q1486.2715,1120.957 1486.5215,1121.2227 Q1486.7871,1121.4727 1486.7871,1121.8164 Q1486.7871,1122.1602 1486.4434,1122.5664 Q1485.9434,1123.1445 1485.1465,1123.4727 Q1484.0684,1123.9258 1482.7715,1123.9258 Q1481.2559,1123.9258 1480.0527,1123.3008 Q1479.0684,1122.8008 1478.3809,1121.7383 Q1477.6934,1120.6602 1477.6934,1119.3789 L1477.6934,1118.2227 Q1477.6934,1116.8945 1478.3027,1115.7539 Q1478.9277,1114.5977 1480.0215,1113.9883 Q1481.1152,1113.3633 1482.3496,1113.3633 Q1483.084,1113.3633 1483.7246,1113.5352 Q1484.3809,1113.6914 1484.9277,1114.0508 Z " fill="#000000"/><text fill="#000000" font-family="Tahoma" font-size="12" font-style="italic" lengthAdjust="spacing" textLength="25.4414" x="1513.3032" y="1116.9043">&#171;JS&#187;</text><text fill="#000000" font-family="Tahoma" font-size="10" lengthAdjust="spacing" textLength="46.7236" x="1502.6621" y="1129.3877">AJAXClient</text><line style="stroke:#333333;stroke-width:0.5;" x1="1422.5" x2="1597.0479" y1="1136.4531" y2="1136.4531"/><text fill="#000000" font-family="Tahoma" font-size="14" lengthAdjust="spacing" textLength="113.6406" x="1427.5" y="1154.46">-csrfToken : string</text><line style="stroke:#333333;stroke-width:1;" x1="1422.5" x2="1597.0479" y1="1161.3516" y2="1161.3516"/><text fill="#000000" font-family="Tahoma" font-size="14" lengthAdjust="spacing" textLength="119.3828" x="1427.5" y="1179.3584">+get(url) : Promise</text><text fill="#000000" font-family="Tahoma" font-size="14" lengthAdjust="spacing" textLength="161.5947" x="1427.5" y="1196.2568">+post(url, data) : Promise</text><text fill="#000000" font-family="Tahoma" font-size="14" lengthAdjust="spacing" textLength="164.5479" x="1427.5" y="1213.1553">+getCookie(name) : string</text></g><!--class ToastManager--><g id="elem_ToastManager"><rect codeLine="672" fill="#FAFAFA" height="137.0469" id="ToastManager" rx="2.5" ry="2.5" style="stroke:#333333;stroke-width:0.5;" width="170.6006" x="1167.5" y="587.8984"/><ellipse cx="1217.3003" cy="606.1758" fill="#ADD1B2" rx="11" ry="11" style="stroke:#181818;stroke-width:1;"/><path d="M1220.0659,602.0508 Q1220.2222,601.832 1220.4097,601.7227 Q1220.5972,601.6133 1220.8159,601.6133 Q1221.1909,601.6133 1221.4253,601.8789 Q1221.6597,602.1289 1221.6597,602.7383 L1221.6597,604.1914 Q1221.6597,604.8008 1221.4253,605.0664 Q1221.1909,605.332 1220.8159,605.332 Q1220.4722,605.332 1220.269,605.1289 Q1220.0659,604.9414 1219.9565,604.4258 Q1219.9097,604.0664 1219.7222,603.8789 Q1219.394,603.5039 1218.7847,603.2852 Q1218.1753,603.0664 1217.5503,603.0664 Q1216.7847,603.0664 1216.144,603.3945 Q1215.519,603.7227 1215.019,604.4727 Q1214.5347,605.2227 1214.5347,606.2539 L1214.5347,607.3477 Q1214.5347,608.582 1215.4253,609.4102 Q1216.3159,610.2227 1217.9097,610.2227 Q1218.8472,610.2227 1219.5034,609.9727 Q1219.894,609.8164 1220.3159,609.3789 Q1220.5815,609.1133 1220.7222,609.0352 Q1220.8784,608.957 1221.0815,608.957 Q1221.4097,608.957 1221.6597,609.2227 Q1221.9253,609.4727 1221.9253,609.8164 Q1221.9253,610.1602 1221.5815,610.5664 Q1221.0815,611.1445 1220.2847,611.4727 Q1219.2065,611.9258 1217.9097,611.9258 Q1216.394,611.9258 1215.1909,611.3008 Q1214.2065,610.8008 1213.519,609.7383 Q1212.8315,608.6602 1212.8315,607.3789 L1212.8315,606.2227 Q1212.8315,604.8945 1213.4409,603.7539 Q1214.0659,602.5977 1215.1597,601.9883 Q1216.2534,601.3633 1217.4878,601.3633 Q1218.2222,601.3633 1218.8628,601.5352 Q1219.519,601.6914 1220.0659,602.0508 Z " fill="#000000"/><text fill="#000000" font-family="Tahoma" font-size="12" font-style="italic" lengthAdjust="spacing" textLength="25.4414" x="1256.3296" y="604.9043">&#171;JS&#187;</text><text fill="#000000" font-family="Tahoma" font-size="10" lengthAdjust="spacing" textLength="62.5" x="1237.8003" y="617.3877">ToastManager</text><line style="stroke:#333333;stroke-width:0.5;" x1="1168.5" x2="1337.1006" y1="624.4531" y2="624.4531"/><text fill="#000000" font-family="Tahoma" font-size="14" lengthAdjust="spacing" textLength="126.1436" x="1173.5" y="642.46">-container : Element</text><line style="stroke:#333333;stroke-width:1;" x1="1168.5" x2="1337.1006" y1="649.3516" y2="649.3516"/><text fill="#000000" font-family="Tahoma" font-size="14" lengthAdjust="spacing" textLength="155.4219" x="1173.5" y="667.3584">+showSuccess(message)</text><text fill="#000000" font-family="Tahoma" font-size="14" lengthAdjust="spacing" textLength="137.6211" x="1173.5" y="684.2568">+showError(message)</text><text fill="#000000" font-family="Tahoma" font-size="14" lengthAdjust="spacing" textLength="158.6006" x="1173.5" y="701.1553">+showWarning(message)</text><text fill="#000000" font-family="Tahoma" font-size="14" lengthAdjust="spacing" textLength="127.3672" x="1173.5" y="718.0537">+autoDismiss(delay)</text></g><!--class BracketRenderer--><g id="elem_BracketRenderer"><rect codeLine="681" fill="#FAFAFA" height="137.0469" id="BracketRenderer" rx="2.5" ry="2.5" style="stroke:#333333;stroke-width:0.5;" width="251.9141" x="1568" y="587.8984"/><ellipse cx="1653.0786" cy="606.1758" fill="#ADD1B2" rx="11" ry="11" style="stroke:#181818;stroke-width:1;"/><path d="M1655.8442,602.0508 Q1656.0005,601.832 1656.188,601.7227 Q1656.3755,601.6133 1656.5942,601.6133 Q1656.9692,601.6133 1657.2036,601.8789 Q1657.438,602.1289 1657.438,602.7383 L1657.438,604.1914 Q1657.438,604.8008 1657.2036,605.0664 Q1656.9692,605.332 1656.5942,605.332 Q1656.2505,605.332 1656.0474,605.1289 Q1655.8442,604.9414 1655.7349,604.4258 Q1655.688,604.0664 1655.5005,603.8789 Q1655.1724,603.5039 1654.563,603.2852 Q1653.9536,603.0664 1653.3286,603.0664 Q1652.563,603.0664 1651.9224,603.3945 Q1651.2974,603.7227 1650.7974,604.4727 Q1650.313,605.2227 1650.313,606.2539 L1650.313,607.3477 Q1650.313,608.582 1651.2036,609.4102 Q1652.0942,610.2227 1653.688,610.2227 Q1654.6255,610.2227 1655.2817,609.9727 Q1655.6724,609.8164 1656.0942,609.3789 Q1656.3599,609.1133 1656.5005,609.0352 Q1656.6567,608.957 1656.8599,608.957 Q1657.188,608.957 1657.438,609.2227 Q1657.7036,609.4727 1657.7036,609.8164 Q1657.7036,610.1602 1657.3599,610.5664 Q1656.8599,611.1445 1656.063,611.4727 Q1654.9849,611.9258 1653.688,611.9258 Q1652.1724,611.9258 1650.9692,611.3008 Q1649.9849,610.8008 1649.2974,609.7383 Q1648.6099,608.6602 1648.6099,607.3789 L1648.6099,606.2227 Q1648.6099,604.8945 1649.2192,603.7539 Q1649.8442,602.5977 1650.938,601.9883 Q1652.0317,601.3633 1653.2661,601.3633 Q1654.0005,601.3633 1654.6411,601.5352 Q1655.2974,601.6914 1655.8442,602.0508 Z " fill="#000000"/><text fill="#000000" font-family="Tahoma" font-size="12" font-style="italic" lengthAdjust="spacing" textLength="25.4414" x="1697.4863" y="604.9043">&#171;JS&#187;</text><text fill="#000000" font-family="Tahoma" font-size="10" lengthAdjust="spacing" textLength="73.2568" x="1673.5786" y="617.3877">BracketRenderer</text><line style="stroke:#333333;stroke-width:0.5;" x1="1569" x2="1818.9141" y1="624.4531" y2="624.4531"/><text fill="#000000" font-family="Tahoma" font-size="14" lengthAdjust="spacing" textLength="118.2617" x="1574" y="642.46">-matches : Match[]</text><text fill="#000000" font-family="Tahoma" font-size="14" lengthAdjust="spacing" textLength="76.7197" x="1574" y="659.3584">-rounds : int</text><line style="stroke:#333333;stroke-width:1;" x1="1569" x2="1818.9141" y1="666.25" y2="666.25"/><text fill="#000000" font-family="Tahoma" font-size="14" lengthAdjust="spacing" textLength="107.4063" x="1574" y="684.2568">+renderBracket()</text><text fill="#000000" font-family="Tahoma" font-size="14" lengthAdjust="spacing" textLength="157.3291" x="1574" y="701.1553">+highlightCurrentMatch()</text><text fill="#000000" font-family="Tahoma" font-size="14" lengthAdjust="spacing" textLength="239.9141" x="1574" y="718.0537">+updateMatchResult(matchId, winner)</text></g><!--link tmpl_pkg to js_pkg--><!--link TournamentListPage to BasePage--><g id="link_TournamentListPage_BasePage"><path codeLine="692" d="M1364.28,232.4284 C1342.98,254.6484 1331.7533,266.3517 1310.4433,288.5917 " fill="none" id="TournamentListPage-to-BasePage" style="stroke:#181818;stroke-width:1;"/><polygon fill="none" points="1297.99,301.5884,1314.7755,292.7428,1306.111,284.4406,1297.99,301.5884" style="stroke:#181818;stroke-width:1;"/></g><!--link TournamentDetailPage to BasePage--><g id="link_TournamentDetailPage_BasePage"><path codeLine="693" d="M1191.78,224.0484 C1198.67,248.3484 1201.7796,259.3112 1208.8996,284.4212 " fill="none" id="TournamentDetailPage-to-BasePage" style="stroke:#181818;stroke-width:1;"/><polygon fill="none" points="1213.81,301.7384,1214.6721,282.7844,1203.1272,286.0579,1213.81,301.7384" style="stroke:#181818;stroke-width:1;"/></g><!--link CreateTournamentPage to BasePage--><g id="link_CreateTournamentPage_BasePage"><path codeLine="694" d="M964.62,207.0184 C1010.33,234.6784 1055.6686,262.112 1107.8086,293.652 " fill="none" id="CreateTournamentPage-to-BasePage" style="stroke:#181818;stroke-width:1;"/><polygon fill="none" points="1123.21,302.9684,1110.9141,288.5182,1104.7031,298.7858,1123.21,302.9684" style="stroke:#181818;stroke-width:1;"/></g><!--link AddCompetitorsPage to BasePage--><g id="link_AddCompetitorsPage_BasePage"><path codeLine="695" d="M725.04,224.0884 C735.87,230.2584 747.01,236.0384 758,240.8984 C877.94,293.9284 1007.1821,325.966 1105.5721,346.006 " fill="none" id="AddCompetitorsPage-to-BasePage" style="stroke:#181818;stroke-width:1;"/><polygon fill="none" points="1123.21,349.5984,1106.7696,340.1267,1104.3746,351.8853,1123.21,349.5984" style="stroke:#181818;stroke-width:1;"/></g><!--link PlayPage to BasePage--><g id="link_PlayPage_BasePage"><path codeLine="696" d="M1818.66,234.2884 C1812.75,236.6784 1806.85,238.8984 1801,240.8984 C1726.75,266.2984 1703.79,254.7084 1627,270.8984 C1530.41,291.2684 1439.0343,314.2259 1360.2843,335.0059 " fill="none" id="PlayPage-to-BasePage" style="stroke:#181818;stroke-width:1;"/><polygon fill="none" points="1342.88,339.5984,1361.8151,340.8073,1358.7534,329.2045,1342.88,339.5984" style="stroke:#181818;stroke-width:1;"/></g><!--link LobbyPage to BasePage--><g id="link_LobbyPage_BasePage"><path codeLine="697" d="M1588.34,215.4384 C1572.81,224.2984 1556.56,233.1484 1541,240.8984 C1476.56,272.9984 1418.8523,297.5728 1359.2923,321.1928 " fill="none" id="LobbyPage-to-BasePage" style="stroke:#181818;stroke-width:1;"/><polygon fill="none" points="1342.56,327.8284,1361.5041,326.7703,1357.0804,315.6154,1342.56,327.8284" style="stroke:#181818;stroke-width:1;"/></g><!--link SummaryPage to BasePage--><g id="link_SummaryPage_BasePage"><path codeLine="698" d="M465.27,215.4784 C483.11,225.0684 502.29,234.1884 521,240.8984 C726.45,314.5184 963.0807,345.6954 1105.4407,359.2254 " fill="none" id="SummaryPage-to-BasePage" style="stroke:#181818;stroke-width:1;"/><polygon fill="none" points="1123.36,360.9284,1106.0084,353.2523,1104.8731,365.1985,1123.36,360.9284" style="stroke:#181818;stroke-width:1;"/></g><!--link PlayPage to TimerComponent--><g id="link_PlayPage_TimerComponent"><path codeLine="701" d="M1827.41,241.0384 C1800.85,259.9384 1773.32,280.8384 1749,301.8984 C1652.02,385.8684 1631.42,411.9584 1551,511.8984 C1536.15,530.3484 1524.6069,546.0395 1510.9969,565.7695 " fill="none" id="PlayPage-to-TimerComponent" style="stroke:#181818;stroke-width:1;"/><polygon fill="#181818" points="1507.59,570.7084,1515.993,565.5713,1510.4291,566.5927,1509.4078,561.0288,1507.59,570.7084" style="stroke:#181818;stroke-width:1;"/><text fill="#000000" font-family="Tahoma" font-size="13" lengthAdjust="spacing" textLength="25.6953" x="1750" y="375.9048">uses</text></g><!--link PlayPage to VoteManager--><g id="link_PlayPage_VoteManager"><path codeLine="702" d="M1950.66,240.9684 C1957.36,355.9384 1957.03,577.9084 1875,741.8984 C1856.86,778.1684 1845.24,786.6984 1809,804.8984 C1738.09,840.5184 1705.83,803.4084 1633,834.8984 C1626.86,837.5584 1626.0054,837.7017 1619.9654,841.0017 " fill="none" id="PlayPage-to-VoteManager" style="stroke:#181818;stroke-width:1;"/><polygon fill="#181818" points="1614.7,843.8784,1624.5159,843.0735,1619.0878,841.4811,1620.6802,836.053,1614.7,843.8784" style="stroke:#181818;stroke-width:1;"/><text fill="#000000" font-family="Tahoma" font-size="13" lengthAdjust="spacing" textLength="25.6953" x="1945" y="500.9048">uses</text></g><!--link PlayPage to LiveChatComponent--><g id="link_PlayPage_LiveChatComponent"><path codeLine="703" d="M1972.59,241.0384 C2015.21,368.4384 2079.37,628.1984 1970,804.8984 C1937.1,858.0484 1878.6992,887.5124 1825.7492,905.2524 " fill="none" id="PlayPage-to-LiveChatComponent" style="stroke:#181818;stroke-width:1;"/><polygon fill="#181818" points="1820.06,907.1584,1829.8645,908.0921,1824.801,905.57,1827.3231,900.5065,1820.06,907.1584" style="stroke:#181818;stroke-width:1;"/><text fill="#000000" font-family="Tahoma" font-size="13" lengthAdjust="spacing" textLength="25.6953" x="2029" y="500.9048">uses</text></g><!--link PlayPage to BracketRenderer--><g id="link_PlayPage_BracketRenderer"><path codeLine="704" d="M1905.21,240.9984 C1856.8,335.9884 1777.4644,491.6326 1731.1744,582.4626 " fill="none" id="PlayPage-to-BracketRenderer" style="stroke:#181818;stroke-width:1;"/><polygon fill="#181818" points="1728.45,587.8084,1736.1005,581.606,1730.7203,583.3536,1728.9727,577.9735,1728.45,587.8084" style="stroke:#181818;stroke-width:1;"/><text fill="#000000" font-family="Tahoma" font-size="13" lengthAdjust="spacing" textLength="25.6953" x="1875" y="375.9048">uses</text></g><!--link LobbyPage to LobbyPoller--><g id="link_LobbyPage_LobbyPoller"><path codeLine="705" d="M1751.15,215.5084 C1793.78,244.3284 1839.71,279.1184 1851,301.8984 C1876.35,353.0384 1854.49,722.0184 1838,741.8984 C1707.6,899.0784 1576.16,755.4884 1388,834.8984 C1382.02,837.4184 1381.3583,837.4728 1375.4683,840.6028 " fill="none" id="LobbyPage-to-LobbyPoller" style="stroke:#181818;stroke-width:1;"/><polygon fill="#181818" points="1370.17,843.4184,1379.9946,842.7273,1374.5853,841.0721,1376.2405,835.6628,1370.17,843.4184" style="stroke:#181818;stroke-width:1;"/><text fill="#000000" font-family="Tahoma" font-size="13" lengthAdjust="spacing" textLength="25.6953" x="1862" y="500.9048">uses</text></g><!--link BasePage to ToastManager--><g id="link_BasePage_ToastManager"><path codeLine="706" d="M1237.77,439.0584 C1240.93,484.0184 1244.6479,536.8233 1247.8179,581.7733 " fill="none" id="BasePage-to-ToastManager" style="stroke:#181818;stroke-width:1;"/><polygon fill="#181818" points="1248.24,587.7584,1251.597,578.4993,1247.8883,582.7708,1243.6168,579.0621,1248.24,587.7584" style="stroke:#181818;stroke-width:1;"/><text fill="#000000" font-family="Tahoma" font-size="13" lengthAdjust="spacing" textLength="25.6953" x="1242" y="500.9048">uses</text></g><!--link VoteManager to AJAXClient--><g id="link_VoteManager_AJAXClient"><path codeLine="708" d="M1510,1014.5184 C1510,1042.8084 1510,1067.7084 1510,1093.6384 " fill="none" id="VoteManager-to-AJAXClient" style="stroke:#181818;stroke-width:1;"/><polygon fill="#181818" points="1510,1099.6384,1514,1090.6384,1510,1094.6384,1506,1090.6384,1510,1099.6384" style="stroke:#181818;stroke-width:1;"/><text fill="#000000" font-family="Tahoma" font-size="13" lengthAdjust="spacing" textLength="25.6953" x="1511" y="1066.9048">uses</text></g><!--link LiveChatComponent to AJAXClient--><g id="link_LiveChatComponent_AJAXClient"><path codeLine="709" d="M1649.94,1016.4784 C1622.68,1044.2084 1597.3444,1069.9979 1572.4644,1095.3279 " fill="none" id="LiveChatComponent-to-AJAXClient" style="stroke:#181818;stroke-width:1;"/><polygon fill="#181818" points="1568.26,1099.6084,1577.4203,1095.9907,1571.7637,1096.0414,1571.713,1090.3847,1568.26,1099.6084" style="stroke:#181818;stroke-width:1;"/><text fill="#000000" font-family="Tahoma" font-size="13" lengthAdjust="spacing" textLength="25.6953" x="1610" y="1066.9048">uses</text></g><!--link LobbyPoller to AJAXClient--><g id="link_LobbyPoller_AJAXClient"><path codeLine="710" d="M1354.27,1014.5184 C1384.78,1042.8084 1413.7099,1069.6293 1441.6799,1095.5593 " fill="none" id="LobbyPoller-to-AJAXClient" style="stroke:#181818;stroke-width:1;"/><polygon fill="#181818" points="1446.08,1099.6384,1442.1993,1090.5863,1442.4133,1096.2391,1436.7605,1096.4531,1446.08,1099.6384" style="stroke:#181818;stroke-width:1;"/><text fill="#000000" font-family="Tahoma" font-size="13" lengthAdjust="spacing" textLength="25.6953" x="1409" y="1066.9048">uses</text></g><!--link TimerComponent to VoteManager--><g id="link_TimerComponent_VoteManager"><path codeLine="712" d="M1470.88,742.2484 C1477.67,774.4684 1484.1638,805.2872 1490.9438,837.4872 " fill="none" id="TimerComponent-to-VoteManager" style="stroke:#181818;stroke-width:1;"/><polygon fill="#181818" points="1492.18,843.3584,1494.2398,833.7274,1491.1498,838.4657,1486.4115,835.3757,1492.18,843.3584" style="stroke:#181818;stroke-width:1;"/><text fill="#000000" font-family="Tahoma" font-size="13" lengthAdjust="spacing" textLength="43.7036" x="1503.5127" y="785.9048">triggers</text><text fill="#000000" font-family="Tahoma" font-size="13" lengthAdjust="spacing" textLength="82.729" x="1484" y="801.5962">onTimerExpire</text></g><!--SRC=[bLTjRzis4FwkNq6q7ofZyT0N3DY2Be3Z96s293DgTntM5G8bdINE4YcGb9Diot_VaP9bqfATr4KZYNSwtlFmtgHMZ5TKqfAaiAHreIy4rxUq1F9YGNDHqXU1wbHKJbDnntX6bhHGu4XYcgmoAMgUJaKX9FcIC-tAau8gDT5QihZMS9a8FcV_07czgqB-3GZ-JdVClRoOc7-DJCWKPBl-plxikd7S6dtpEdWC0irq0MX8u-LZ7PCnkP2e0JmbKxlJ6QCPxXi4h_1LcG1PWzGieGKfw8EeDGaNK5O5rQ28u4IBweXSqJMT9v9LciHGYBjHe54bgbOP6N_DMPe2_uOCyV49-LkPvI2e40hD39sTjV3ZukQQp71LZLuGgaXdvENvkukt5sV8WeNKK79A5HXbylxzniR9IKkK-Vr0E5t7L99ZScjl74bY8MiKdHOYMJcIfH0Qv8102wfqP5waZ5kDXLcveHnzsDeUZxlRytj3gph6A53mOwxBmeeUNH0BKKkEOSNrDLFwC1m5L2PvX85H6yyNSAylpRsB2z_AX7o8bgneO9n9KHdgNJkQwbeTLD6TMr52PQfGQuhNhzySdOfcZ5FDC0YEpQcP1o4FGJm3vAuu3DBPcV6bGDENU9b3OZRoJh2i08DPo2YJB4Mz3tZn5QmLrRng43GhVLlKBaIOWbfmW_NKtdt0JAlwUAOIqEqjgcVZMGfPed7Cgj9LoEioviXBL4bOCxWpa4kqEMiU-mvCKap_3NfrUFjAYao2Kb6J2BFsyNGd6vxWiguAGTE88d8RBpGpCVEduE1kLSS5KtbBOyTYt_yP5fB3NfTKOw2dJA7m0ItTcEUpvj7pk-RQH6waMTcafBaQSj0rxYR66hFQEU3VyR5nRqQPxEbPhepE3B02OiPdu3DMi3L4IKvD7bxZ_HHlXxQD9POvq571-Ee08zSYZf-Wf6BS8MJ6U9yEx1TOg5b5kTbGQPkMtTA2nWNuLK3gfmzhNfSbbKyuXqoKbKcXhOVJTicK3KSJWm-RgOgqyGRLFZNFkyuzaxT9MY8HLEMnm6sUg9uiXUPWxLlpvd6dBAgktCtDat5-MmMsnMBDz4C7OT8k-1ZszO68cjtTRl3eD4EdaNRXf6mlRFecTiAVBtuw_yNlX7xK8mLNSm_ycAIrt5HgvWJe6C-Zn7Q6emjMHS4jSb_1PjObTakvnX70LEFcTWXe6rJJJLg68qyagc69u1R0-Nt597YIkahn8Dj8RoLU09WSRJlm46nRHoxJFgYkA0y8SwgCMIE8XIY0yZrOwxXasgY6sm8wpGLBmCMm1FJ1Q7ssOC8HshsQ_tRRWsbh4fLXbUWtHmJ_ldNDLA8ei7CqHjGG5xqwz3sC9FR5xMnpNa09dePn0EFa-Q60CN-3hGRF9jGuglGuQOLgY15QLSxhfSf6kq4sQzpfXPY_Fb1bKJuSB0U3udlHMuHEzPtRcMl_uJkgPX0CSOsEl0eBoMexSymD1P26pw95Geg9bUY5cEr9eydLv8zfmVR4JABaSY5MOAg7mayLdWrZpa27jIn6pPnHCkLD1q9PwH6nq0PrqC1KY1M3qA0S-Tljp9JRqNlGvKEXx4LfBkxcTP9Wf8Lb4swZ7V6vb4Bk4twXqbJF8J6jjS3IXHXLc08oFq3yQTFdFc6mWpnGmq1jfY1d1CVgRJu5UpLxx9sziTnkuqL5phAymFzwMalKqjRwGFMrwqsR3jlgSKJmOnV97Mqxs2log_bXLkGWcQOSFnpjIZ3mXJCU_tVIVRu5Wzy7lihWoEsh30p5la8tTVhBsz7BNtVd7b_IOVriJhn5wLW_sUt7nwHMe7mLjt4DoVl5V4XhDtnQ7HVJYLVsMeNkqzbww-PIgn2u_Xabfq9iDkbvk4VFsNvO8zZXgyyFLe4CxzHVt9iLWly1]--></g></svg>