<svg xmlns="http://www.w3.org/2000/svg" xmlns:xlink="http://www.w3.org/1999/xlink" contentStyleType="text/css" height="1548px" preserveAspectRatio="none" style="width:1034px;height:1548px;background:#FFFFFF;" version="1.1" viewBox="0 0 1034 1548" width="1034px" zoomAndPan="magnify"><title>SD-3.2: Admin Flow (Part 2) &#8212; &#3607;&#3633;&#3623;&#3619;&#3660;&#3609;&#3634;&#3648;&#3617;&#3609;&#3605;&#3660; &#3649;&#3610;&#3609; &#3619;&#3637;&#3614;&#3629;&#3619;&#3660;&#3605; Audit Log</title><defs/><g><text fill="#000000" font-family="Tahoma" font-size="14" font-weight="bold" lengthAdjust="spacing" textLength="446.3936" x="290.1135" y="29.0068">SD-3.2: Admin Flow (Part 2) &#8212; &#3607;&#3633;&#3623;&#3619;&#3660;&#3609;&#3634;&#3648;&#3617;&#3609;&#3605;&#3660; &#3649;&#3610;&#3609; &#3619;&#3637;&#3614;&#3629;&#3619;&#3660;&#3605; Audit Log</text><rect fill="#E3F2FD" height="1498.6328" style="stroke:#181818;stroke-width:0.5;" width="127.2666" x="174.4512" y="43.8984"/><text fill="#000000" font-family="Tahoma" font-size="13" font-weight="bold" lengthAdjust="spacing" textLength="59.1602" x="208.5044" y="56.9048">Frontend</text><rect fill="#FCE4EC" height="1498.6328" style="stroke:#181818;stroke-width:0.5;" width="96.457" x="474.04" y="43.8984"/><text fill="#000000" font-family="Tahoma" font-size="13" font-weight="bold" lengthAdjust="spacing" textLength="55.6118" x="494.4626" y="56.9048">Backend</text><rect fill="#FFF8E1" height="1498.6328" style="stroke:#181818;stroke-width:0.5;" width="252.2734" x="609.3677" y="43.8984"/><text fill="#000000" font-family="Tahoma" font-size="13" font-weight="bold" lengthAdjust="spacing" textLength="46.1475" x="712.4307" y="56.9048">Models</text><rect fill="#FFFFFF" height="89.0742" style="stroke:#555555;stroke-width:1;" width="10" x="517.2686" y="241.7695"/><rect fill="#FFFFFF" height="148.457" style="stroke:#555555;stroke-width:1;" width="10" x="517.2686" y="390.2266"/><rect fill="#FFFFFF" height="89.0742" style="stroke:#555555;stroke-width:1;" width="10" x="517.2686" y="641.7578"/><rect fill="#FFFFFF" height="148.457" style="stroke:#555555;stroke-width:1;" width="10" x="517.2686" y="833.9063"/><rect fill="#FFFFFF" height="118.7656" style="stroke:#555555;stroke-width:1;" width="10" x="517.2686" y="1085.4375"/><rect fill="#FFFFFF" height="120.457" style="stroke:#555555;stroke-width:1;" width="10" x="517.2686" y="1307.2773"/><line style="stroke:#555555;stroke-width:0.5;stroke-dasharray:5.0,5.0;" x1="40" x2="40" y1="136.6953" y2="1445.7344"/><line style="stroke:#555555;stroke-width:0.5;stroke-dasharray:5.0,5.0;" x1="237.4512" x2="237.4512" y1="136.6953" y2="1445.7344"/><line style="stroke:#555555;stroke-width:0.5;stroke-dasharray:5.0,5.0;" x1="522.04" x2="522.04" y1="136.6953" y2="1445.7344"/><line style="stroke:#555555;stroke-width:0.5;stroke-dasharray:5.0,5.0;" x1="657.3677" x2="657.3677" y1="136.6953" y2="1445.7344"/><line style="stroke:#555555;stroke-width:0.5;stroke-dasharray:5.0,5.0;" x1="745.7681" x2="745.7681" y1="136.6953" y2="1445.7344"/><line style="stroke:#555555;stroke-width:0.5;stroke-dasharray:5.0,5.0;" x1="823.5142" x2="823.5142" y1="136.6953" y2="1445.7344"/><line style="stroke:#555555;stroke-width:0.5;stroke-dasharray:5.0,5.0;" x1="983.5474" x2="983.5474" y1="136.6953" y2="1445.7344"/><text fill="#000000" font-family="Tahoma" font-size="14" lengthAdjust="spacing" textLength="64.292" x="5" y="116.9053">&#3612;&#3641;&#3657;&#3604;&#3641;&#3649;&#3621;&#3619;&#3632;&#3610;&#3610;</text><text fill="#000000" font-family="Tahoma" font-size="14" lengthAdjust="spacing" textLength="49.6152" x="12.3384" y="133.8037">(Admin)</text><ellipse cx="40.146" cy="51.3984" fill="#E2E2F0" rx="8" ry="8" style="stroke:#181818;stroke-width:0.5;"/><path d="M40.146,59.3984 L40.146,86.3984 M27.146,67.3984 L53.146,67.3984 M40.146,86.3984 L27.146,101.3984 M40.146,86.3984 L53.146,101.3984 " fill="none" style="stroke:#181818;stroke-width:0.5;"/><text fill="#000000" font-family="Tahoma" font-size="14" lengthAdjust="spacing" textLength="64.292" x="5" y="1458.7412">&#3612;&#3641;&#3657;&#3604;&#3641;&#3649;&#3621;&#3619;&#3632;&#3610;&#3610;</text><text fill="#000000" font-family="Tahoma" font-size="14" lengthAdjust="spacing" textLength="49.6152" x="12.3384" y="1475.6396">(Admin)</text><ellipse cx="40.146" cy="1487.0313" fill="#E2E2F0" rx="8" ry="8" style="stroke:#181818;stroke-width:0.5;"/><path d="M40.146,1495.0313 L40.146,1522.0313 M27.146,1503.0313 L53.146,1503.0313 M40.146,1522.0313 L27.146,1537.0313 M40.146,1522.0313 L53.146,1537.0313 " fill="none" style="stroke:#181818;stroke-width:0.5;"/><rect fill="#FCE4EC" height="64.6953" rx="2.5" ry="2.5" style="stroke:#C62828;stroke-width:0.5;" width="119.2666" x="178.4512" y="71"/><text fill="#000000" font-family="Tahoma" font-size="14" font-style="italic" lengthAdjust="spacing" textLength="73.6914" x="201.2388" y="92.0068">&#171;Template&#187;</text><text fill="#000000" font-family="Tahoma" font-size="14" lengthAdjust="spacing" textLength="105.2666" x="185.4512" y="108.9053">AdminDashboard</text><text fill="#000000" font-family="Tahoma" font-size="14" lengthAdjust="spacing" textLength="30.1738" x="222.9976" y="125.8037">Page</text><rect fill="#FCE4EC" height="64.6953" rx="2.5" ry="2.5" style="stroke:#C62828;stroke-width:0.5;" width="119.2666" x="178.4512" y="1444.7344"/><text fill="#000000" font-family="Tahoma" font-size="14" font-style="italic" lengthAdjust="spacing" textLength="73.6914" x="201.2388" y="1465.7412">&#171;Template&#187;</text><text fill="#000000" font-family="Tahoma" font-size="14" lengthAdjust="spacing" textLength="105.2666" x="185.4512" y="1482.6396">AdminDashboard</text><text fill="#000000" font-family="Tahoma" font-size="14" lengthAdjust="spacing" textLength="30.1738" x="222.9976" y="1499.5381">Page</text><rect fill="#FCE4EC" height="47.7969" rx="2.5" ry="2.5" style="stroke:#C62828;stroke-width:0.5;" width="88.457" x="478.04" y="87.8984"/><text fill="#000000" font-family="Tahoma" font-size="14" font-style="italic" lengthAdjust="spacing" textLength="51.6113" x="496.4629" y="108.9053">&#171;Views&#187;</text><text fill="#000000" font-family="Tahoma" font-size="14" lengthAdjust="spacing" textLength="74.457" x="485.04" y="125.8037">AdminViews</text><rect fill="#FCE4EC" height="47.7969" rx="2.5" ry="2.5" style="stroke:#C62828;stroke-width:0.5;" width="88.457" x="478.04" y="1444.7344"/><text fill="#000000" font-family="Tahoma" font-size="14" font-style="italic" lengthAdjust="spacing" textLength="51.6113" x="496.4629" y="1465.7412">&#171;Views&#187;</text><text fill="#000000" font-family="Tahoma" font-size="14" lengthAdjust="spacing" textLength="74.457" x="485.04" y="1482.6396">AdminViews</text><rect fill="#FCE4EC" height="47.7969" rx="2.5" ry="2.5" style="stroke:#C62828;stroke-width:0.5;" width="89.4004" x="613.3677" y="87.8984"/><text fill="#000000" font-family="Tahoma" font-size="14" font-style="italic" lengthAdjust="spacing" textLength="52.7461" x="631.6948" y="108.9053">&#171;Model&#187;</text><text fill="#000000" font-family="Tahoma" font-size="14" lengthAdjust="spacing" textLength="75.4004" x="620.3677" y="125.8037">Tournament</text><rect fill="#FCE4EC" height="47.7969" rx="2.5" ry="2.5" style="stroke:#C62828;stroke-width:0.5;" width="89.4004" x="613.3677" y="1444.7344"/><text fill="#000000" font-family="Tahoma" font-size="14" font-style="italic" lengthAdjust="spacing" textLength="52.7461" x="631.6948" y="1465.7412">&#171;Model&#187;</text><text fill="#000000" font-family="Tahoma" font-size="14" lengthAdjust="spacing" textLength="75.4004" x="620.3677" y="1482.6396">Tournament</text><rect fill="#FCE4EC" height="47.7969" rx="2.5" ry="2.5" style="stroke:#C62828;stroke-width:0.5;" width="66.7461" x="712.7681" y="87.8984"/><text fill="#000000" font-family="Tahoma" font-size="14" font-style="italic" lengthAdjust="spacing" textLength="52.7461" x="719.7681" y="108.9053">&#171;Model&#187;</text><text fill="#000000" font-family="Tahoma" font-size="14" lengthAdjust="spacing" textLength="41.125" x="725.5786" y="125.8037">Report</text><rect fill="#FCE4EC" height="47.7969" rx="2.5" ry="2.5" style="stroke:#C62828;stroke-width:0.5;" width="66.7461" x="712.7681" y="1444.7344"/><text fill="#000000" font-family="Tahoma" font-size="14" font-style="italic" lengthAdjust="spacing" textLength="52.7461" x="719.7681" y="1465.7412">&#171;Model&#187;</text><text fill="#000000" font-family="Tahoma" font-size="14" lengthAdjust="spacing" textLength="41.125" x="725.5786" y="1482.6396">Report</text><rect fill="#FCE4EC" height="47.7969" rx="2.5" ry="2.5" style="stroke:#C62828;stroke-width:0.5;" width="68.127" x="789.5142" y="87.8984"/><text fill="#000000" font-family="Tahoma" font-size="14" font-style="italic" lengthAdjust="spacing" textLength="52.7461" x="797.2046" y="108.9053">&#171;Model&#187;</text><text fill="#000000" font-family="Tahoma" font-size="14" lengthAdjust="spacing" textLength="54.127" x="796.5142" y="125.8037">AuditLog</text><rect fill="#FCE4EC" height="47.7969" rx="2.5" ry="2.5" style="stroke:#C62828;stroke-width:0.5;" width="68.127" x="789.5142" y="1444.7344"/><text fill="#000000" font-family="Tahoma" font-size="14" font-style="italic" lengthAdjust="spacing" textLength="52.7461" x="797.2046" y="1465.7412">&#171;Model&#187;</text><text fill="#000000" font-family="Tahoma" font-size="14" lengthAdjust="spacing" textLength="54.127" x="796.5142" y="1482.6396">AuditLog</text><text fill="#000000" font-family="Tahoma" font-size="14" lengthAdjust="spacing" textLength="71.0732" x="945.5474" y="133.8037">PostgreSQL</text><path d="M966.084,83.7969 C966.084,73.7969 984.084,73.7969 984.084,73.7969 C984.084,73.7969 1002.084,73.7969 1002.084,83.7969 L1002.084,109.7969 C1002.084,119.7969 984.084,119.7969 984.084,119.7969 C984.084,119.7969 966.084,119.7969 966.084,109.7969 L966.084,83.7969 " fill="#E2E2F0" style="stroke:#181818;stroke-width:1.5;"/><path d="M966.084,83.7969 C966.084,93.7969 984.084,93.7969 984.084,93.7969 C984.084,93.7969 1002.084,93.7969 1002.084,83.7969 " fill="none" style="stroke:#181818;stroke-width:1.5;"/><text fill="#000000" font-family="Tahoma" font-size="14" lengthAdjust="spacing" textLength="71.0732" x="945.5474" y="1458.7412">PostgreSQL</text><path d="M966.084,1471.6328 C966.084,1461.6328 984.084,1461.6328 984.084,1461.6328 C984.084,1461.6328 1002.084,1461.6328 1002.084,1471.6328 L1002.084,1497.6328 C1002.084,1507.6328 984.084,1507.6328 984.084,1507.6328 C984.084,1507.6328 966.084,1507.6328 966.084,1497.6328 L966.084,1471.6328 " fill="#E2E2F0" style="stroke:#181818;stroke-width:1.5;"/><path d="M966.084,1471.6328 C966.084,1481.6328 984.084,1481.6328 984.084,1481.6328 C984.084,1481.6328 1002.084,1481.6328 1002.084,1471.6328 " fill="none" style="stroke:#181818;stroke-width:1.5;"/><rect fill="#FFFFFF" height="89.0742" style="stroke:#555555;stroke-width:1;" width="10" x="517.2686" y="241.7695"/><rect fill="#FFFFFF" height="148.457" style="stroke:#555555;stroke-width:1;" width="10" x="517.2686" y="390.2266"/><rect fill="#FFFFFF" height="89.0742" style="stroke:#555555;stroke-width:1;" width="10" x="517.2686" y="641.7578"/><rect fill="#FFFFFF" height="148.457" style="stroke:#555555;stroke-width:1;" width="10" x="517.2686" y="833.9063"/><rect fill="#FFFFFF" height="118.7656" style="stroke:#555555;stroke-width:1;" width="10" x="517.2686" y="1085.4375"/><rect fill="#FFFFFF" height="120.457" style="stroke:#555555;stroke-width:1;" width="10" x="517.2686" y="1307.2773"/><rect fill="#EEEEEE" height="3" style="stroke:#EEEEEE;stroke-width:1;" width="1027.6206" x="0" y="167.541"/><line style="stroke:#000000;stroke-width:1;" x1="0" x2="1027.6206" y1="167.541" y2="167.541"/><line style="stroke:#000000;stroke-width:1;" x1="0" x2="1027.6206" y1="170.541" y2="170.541"/><rect fill="#EEEEEE" height="23.6914" style="stroke:#000000;stroke-width:2;" width="234.3843" x="396.6182" y="156.6953"/><text fill="#000000" font-family="Tahoma" font-size="13" font-weight="bold" lengthAdjust="spacing" textLength="216.5757" x="402.6182" y="173.7017">UC-30 &amp; UC-31: &#3592;&#3633;&#3604;&#3585;&#3634;&#3619;&#3607;&#3633;&#3623;&#3619;&#3660;&#3609;&#3634;&#3648;&#3617;&#3609;&#3605;&#3660;</text><polygon fill="#333333" points="226.0845,208.0781,236.0845,212.0781,226.0845,216.0781,230.0845,212.0781" style="stroke:#333333;stroke-width:1;"/><line style="stroke:#333333;stroke-width:1;" x1="40.146" x2="232.0845" y1="212.0781" y2="212.0781"/><text fill="#000000" font-family="Tahoma" font-size="13" lengthAdjust="spacing" textLength="94.4658" x="47.146" y="207.3931">&#3588;&#3657;&#3609;&#3627;&#3634;&#3607;&#3633;&#3623;&#3619;&#3660;&#3609;&#3634;&#3648;&#3617;&#3609;&#3605;&#3660;</text><polygon fill="#333333" points="505.2686,237.7695,515.2686,241.7695,505.2686,245.7695,509.2686,241.7695" style="stroke:#333333;stroke-width:1;"/><line style="stroke:#333333;stroke-width:1;" x1="238.0845" x2="511.2686" y1="241.7695" y2="241.7695"/><text fill="#000000" font-family="Tahoma" font-size="13" lengthAdjust="spacing" textLength="150.2554" x="245.0845" y="237.0845">GET /admin/tournaments/</text><polygon fill="#333333" points="646.0679,267.4609,656.0679,271.4609,646.0679,275.4609,650.0679,271.4609" style="stroke:#333333;stroke-width:1;"/><line style="stroke:#333333;stroke-width:1;" x1="527.2686" x2="652.0679" y1="271.4609" y2="271.4609"/><text fill="#000000" font-family="Tahoma" font-size="13" lengthAdjust="spacing" textLength="98.5791" x="534.2686" y="266.7759">QS Filter &amp; Order</text><polygon fill="#333333" points="972.084,297.1523,982.084,301.1523,972.084,305.1523,976.084,301.1523" style="stroke:#333333;stroke-width:1;"/><line style="stroke:#333333;stroke-width:1;" x1="658.0679" x2="978.084" y1="301.1523" y2="301.1523"/><text fill="#000000" font-family="Tahoma" font-size="13" lengthAdjust="spacing" textLength="43.6973" x="665.0679" y="296.4673">SELECT</text><polygon fill="#333333" points="249.0845,326.8438,239.0845,330.8438,249.0845,334.8438,245.0845,330.8438" style="stroke:#333333;stroke-width:1;"/><line style="stroke:#333333;stroke-width:1;stroke-dasharray:2.0,2.0;" x1="243.0845" x2="521.2686" y1="330.8438" y2="330.8438"/><text fill="#000000" font-family="Tahoma" font-size="13" lengthAdjust="spacing" textLength="61.0264" x="255.0845" y="326.1587">Render list</text><polygon fill="#333333" points="226.0845,356.5352,236.0845,360.5352,226.0845,364.5352,230.0845,360.5352" style="stroke:#333333;stroke-width:1;"/><line style="stroke:#333333;stroke-width:1;" x1="40.146" x2="232.0845" y1="360.5352" y2="360.5352"/><text fill="#000000" font-family="Tahoma" font-size="13" lengthAdjust="spacing" textLength="163.9219" x="47.146" y="355.8501">&#3585;&#3604;&#3611;&#3640;&#3656;&#3617; "Force Finish" (UC-31)</text><polygon fill="#333333" points="505.2686,386.2266,515.2686,390.2266,505.2686,394.2266,509.2686,390.2266" style="stroke:#333333;stroke-width:1;"/><line style="stroke:#333333;stroke-width:1;" x1="238.0845" x2="511.2686" y1="390.2266" y2="390.2266"/><text fill="#000000" font-family="Tahoma" font-size="13" lengthAdjust="spacing" textLength="260.1841" x="245.0845" y="385.5415">POST /admin/tournaments/{pk}/force_finish/</text><polygon fill="#333333" points="646.0679,415.918,656.0679,419.918,646.0679,423.918,650.0679,419.918" style="stroke:#333333;stroke-width:1;"/><line style="stroke:#333333;stroke-width:1;" x1="527.2686" x2="652.0679" y1="419.918" y2="419.918"/><text fill="#000000" font-family="Tahoma" font-size="13" lengthAdjust="spacing" textLength="106.7993" x="534.2686" y="415.2329">status = "finished"</text><polygon fill="#333333" points="972.084,445.6094,982.084,449.6094,972.084,453.6094,976.084,449.6094" style="stroke:#333333;stroke-width:1;"/><line style="stroke:#333333;stroke-width:1;" x1="658.0679" x2="978.084" y1="449.6094" y2="449.6094"/><text fill="#000000" font-family="Tahoma" font-size="13" lengthAdjust="spacing" textLength="47.1885" x="665.0679" y="444.9243">UPDATE</text><polygon fill="#333333" points="811.5776,475.3008,821.5776,479.3008,811.5776,483.3008,815.5776,479.3008" style="stroke:#333333;stroke-width:1;"/><line style="stroke:#333333;stroke-width:1;" x1="527.2686" x2="817.5776" y1="479.3008" y2="479.3008"/><text fill="#000000" font-family="Tahoma" font-size="13" lengthAdjust="spacing" textLength="193.1084" x="534.2686" y="474.6157">Create AuditLog (FORCE_FINISH)</text><polygon fill="#333333" points="972.084,504.9922,982.084,508.9922,972.084,512.9922,976.084,508.9922" style="stroke:#333333;stroke-width:1;"/><line style="stroke:#333333;stroke-width:1;" x1="823.5776" x2="978.084" y1="508.9922" y2="508.9922"/><text fill="#000000" font-family="Tahoma" font-size="13" lengthAdjust="spacing" textLength="43.7227" x="830.5776" y="504.3071">INSERT</text><polygon fill="#333333" points="51.146,534.6836,41.146,538.6836,51.146,542.6836,47.146,538.6836" style="stroke:#333333;stroke-width:1;"/><line style="stroke:#333333;stroke-width:1;stroke-dasharray:2.0,2.0;" x1="45.146" x2="521.2686" y1="538.6836" y2="538.6836"/><text fill="#000000" font-family="Tahoma" font-size="13" lengthAdjust="spacing" textLength="96.1479" x="57.146" y="533.9985">Redirect + Toast</text><rect fill="#EEEEEE" height="3" style="stroke:#EEEEEE;stroke-width:1;" width="1027.6206" x="0" y="567.5293"/><line style="stroke:#000000;stroke-width:1;" x1="0" x2="1027.6206" y1="567.5293" y2="567.5293"/><line style="stroke:#000000;stroke-width:1;" x1="0" x2="1027.6206" y1="570.5293" y2="570.5293"/><rect fill="#EEEEEE" height="23.6914" style="stroke:#000000;stroke-width:2;" width="187.5957" x="420.0125" y="556.6836"/><text fill="#000000" font-family="Tahoma" font-size="13" font-weight="bold" lengthAdjust="spacing" textLength="169.7871" x="426.0125" y="573.6899">UC-32: &#3604;&#3641;&#3619;&#3634;&#3618;&#3591;&#3634;&#3609; (Reports)</text><polygon fill="#333333" points="226.0845,608.0664,236.0845,612.0664,226.0845,616.0664,230.0845,612.0664" style="stroke:#333333;stroke-width:1;"/><line style="stroke:#333333;stroke-width:1;" x1="40.146" x2="232.0845" y1="612.0664" y2="612.0664"/><text fill="#000000" font-family="Tahoma" font-size="13" lengthAdjust="spacing" textLength="102.2925" x="47.146" y="607.3813">&#3588;&#3621;&#3636;&#3585;&#3648;&#3617;&#3609;&#3641; "Reports"</text><polygon fill="#333333" points="505.2686,637.7578,515.2686,641.7578,505.2686,645.7578,509.2686,641.7578" style="stroke:#333333;stroke-width:1;"/><line style="stroke:#333333;stroke-width:1;" x1="238.0845" x2="511.2686" y1="641.7578" y2="641.7578"/><text fill="#000000" font-family="Tahoma" font-size="13" lengthAdjust="spacing" textLength="214.1445" x="245.0845" y="637.0728">GET /admin/reports/?status=pending</text><polygon fill="#333333" points="734.1411,667.4492,744.1411,671.4492,734.1411,675.4492,738.1411,671.4492" style="stroke:#333333;stroke-width:1;"/><line style="stroke:#333333;stroke-width:1;" x1="527.2686" x2="740.1411" y1="671.4492" y2="671.4492"/><text fill="#000000" font-family="Tahoma" font-size="13" lengthAdjust="spacing" textLength="168.7334" x="534.2686" y="666.7642">Report.objects.filter(pending)</text><polygon fill="#333333" points="972.084,697.1406,982.084,701.1406,972.084,705.1406,976.084,701.1406" style="stroke:#333333;stroke-width:1;"/><line style="stroke:#333333;stroke-width:1;" x1="746.1411" x2="978.084" y1="701.1406" y2="701.1406"/><text fill="#000000" font-family="Tahoma" font-size="13" lengthAdjust="spacing" textLength="43.6973" x="753.1411" y="696.4556">SELECT</text><polygon fill="#333333" points="249.0845,726.832,239.0845,730.832,249.0845,734.832,245.0845,730.832" style="stroke:#333333;stroke-width:1;"/><line style="stroke:#333333;stroke-width:1;stroke-dasharray:2.0,2.0;" x1="243.0845" x2="521.2686" y1="730.832" y2="730.832"/><text fill="#000000" font-family="Tahoma" font-size="13" lengthAdjust="spacing" textLength="117.7744" x="255.0845" y="726.147">Render reports table</text><rect fill="#EEEEEE" height="3" style="stroke:#EEEEEE;stroke-width:1;" width="1027.6206" x="0" y="759.6777"/><line style="stroke:#000000;stroke-width:1;" x1="0" x2="1027.6206" y1="759.6777" y2="759.6777"/><line style="stroke:#000000;stroke-width:1;" x1="0" x2="1027.6206" y1="762.6777" y2="762.6777"/><rect fill="#EEEEEE" height="23.6914" style="stroke:#000000;stroke-width:2;" width="151.4775" x="438.0715" y="748.832"/><text fill="#000000" font-family="Tahoma" font-size="13" font-weight="bold" lengthAdjust="spacing" textLength="133.6689" x="444.0715" y="765.8384">UC-33: &#3592;&#3633;&#3604;&#3585;&#3634;&#3619;&#3619;&#3634;&#3618;&#3591;&#3634;&#3609;</text><polygon fill="#333333" points="226.0845,800.2148,236.0845,804.2148,226.0845,808.2148,230.0845,804.2148" style="stroke:#333333;stroke-width:1;"/><line style="stroke:#333333;stroke-width:1;" x1="40.146" x2="232.0845" y1="804.2148" y2="804.2148"/><text fill="#000000" font-family="Tahoma" font-size="13" lengthAdjust="spacing" textLength="173.9385" x="47.146" y="799.5298">&#3585;&#3604;&#3611;&#3640;&#3656;&#3617; "Resolve" &#3627;&#3619;&#3639;&#3629; "Dismiss"</text><polygon fill="#333333" points="505.2686,829.9063,515.2686,833.9063,505.2686,837.9063,509.2686,833.9063" style="stroke:#333333;stroke-width:1;"/><line style="stroke:#333333;stroke-width:1;" x1="238.0845" x2="511.2686" y1="833.9063" y2="833.9063"/><text fill="#000000" font-family="Tahoma" font-size="13" lengthAdjust="spacing" textLength="208.9585" x="245.0845" y="829.2212">POST /admin/reports/{pk}/{action}/</text><polygon fill="#333333" points="734.1411,859.5977,744.1411,863.5977,734.1411,867.5977,738.1411,863.5977" style="stroke:#333333;stroke-width:1;"/><line style="stroke:#333333;stroke-width:1;" x1="527.2686" x2="740.1411" y1="863.5977" y2="863.5977"/><text fill="#000000" font-family="Tahoma" font-size="13" lengthAdjust="spacing" textLength="160.2656" x="534.2686" y="858.9126">status = resolved/dismissed</text><polygon fill="#333333" points="972.084,889.2891,982.084,893.2891,972.084,897.2891,976.084,893.2891" style="stroke:#333333;stroke-width:1;"/><line style="stroke:#333333;stroke-width:1;" x1="746.1411" x2="978.084" y1="893.2891" y2="893.2891"/><text fill="#000000" font-family="Tahoma" font-size="13" lengthAdjust="spacing" textLength="47.1885" x="753.1411" y="888.604">UPDATE</text><polygon fill="#333333" points="811.5776,918.9805,821.5776,922.9805,811.5776,926.9805,815.5776,922.9805" style="stroke:#333333;stroke-width:1;"/><line style="stroke:#333333;stroke-width:1;" x1="527.2686" x2="817.5776" y1="922.9805" y2="922.9805"/><text fill="#000000" font-family="Tahoma" font-size="13" lengthAdjust="spacing" textLength="214.2397" x="534.2686" y="918.2954">Create AuditLog (RESOLVE/DISMISS)</text><polygon fill="#333333" points="972.084,948.6719,982.084,952.6719,972.084,956.6719,976.084,952.6719" style="stroke:#333333;stroke-width:1;"/><line style="stroke:#333333;stroke-width:1;" x1="823.5776" x2="978.084" y1="952.6719" y2="952.6719"/><text fill="#000000" font-family="Tahoma" font-size="13" lengthAdjust="spacing" textLength="43.7227" x="830.5776" y="947.9868">INSERT</text><polygon fill="#333333" points="51.146,978.3633,41.146,982.3633,51.146,986.3633,47.146,982.3633" style="stroke:#333333;stroke-width:1;"/><line style="stroke:#333333;stroke-width:1;stroke-dasharray:2.0,2.0;" x1="45.146" x2="521.2686" y1="982.3633" y2="982.3633"/><text fill="#000000" font-family="Tahoma" font-size="13" lengthAdjust="spacing" textLength="96.1479" x="57.146" y="977.6782">Redirect + Toast</text><rect fill="#EEEEEE" height="3" style="stroke:#EEEEEE;stroke-width:1;" width="1027.6206" x="0" y="1011.209"/><line style="stroke:#000000;stroke-width:1;" x1="0" x2="1027.6206" y1="1011.209" y2="1011.209"/><line style="stroke:#000000;stroke-width:1;" x1="0" x2="1027.6206" y1="1014.209" y2="1014.209"/><rect fill="#EEEEEE" height="23.6914" style="stroke:#000000;stroke-width:2;" width="199.2119" x="414.2043" y="1000.3633"/><text fill="#000000" font-family="Tahoma" font-size="13" font-weight="bold" lengthAdjust="spacing" textLength="181.4033" x="420.2043" y="1017.3696">UC-34: &#3621;&#3610;&#3648;&#3609;&#3639;&#3657;&#3629;&#3627;&#3634;&#3607;&#3637;&#3656;&#3652;&#3617;&#3656;&#3648;&#3627;&#3617;&#3634;&#3632;&#3626;&#3617;</text><polygon fill="#333333" points="226.0845,1051.7461,236.0845,1055.7461,226.0845,1059.7461,230.0845,1055.7461" style="stroke:#333333;stroke-width:1;"/><line style="stroke:#333333;stroke-width:1;" x1="40.146" x2="232.0845" y1="1055.7461" y2="1055.7461"/><text fill="#000000" font-family="Tahoma" font-size="13" lengthAdjust="spacing" textLength="161.6113" x="47.146" y="1051.061">&#3585;&#3604;&#3611;&#3640;&#3656;&#3617; "Delete" &#3607;&#3637;&#3656;&#3588;&#3623;&#3634;&#3617;&#3588;&#3636;&#3604;&#3648;&#3627;&#3655;&#3609;</text><polygon fill="#333333" points="505.2686,1081.4375,515.2686,1085.4375,505.2686,1089.4375,509.2686,1085.4375" style="stroke:#333333;stroke-width:1;"/><line style="stroke:#333333;stroke-width:1;" x1="238.0845" x2="511.2686" y1="1085.4375" y2="1085.4375"/><text fill="#000000" font-family="Tahoma" font-size="13" lengthAdjust="spacing" textLength="215.5791" x="245.0845" y="1080.7524">POST /admin/comments/{pk}/delete/</text><polygon fill="#333333" points="972.084,1111.1289,982.084,1115.1289,972.084,1119.1289,976.084,1115.1289" style="stroke:#333333;stroke-width:1;"/><line style="stroke:#333333;stroke-width:1;" x1="527.2686" x2="978.084" y1="1115.1289" y2="1115.1289"/><text fill="#000000" font-family="Tahoma" font-size="13" lengthAdjust="spacing" textLength="233.9175" x="534.2686" y="1110.4438">DELETE FROM comment/matchcomment</text><polygon fill="#333333" points="811.5776,1140.8203,821.5776,1144.8203,811.5776,1148.8203,815.5776,1144.8203" style="stroke:#333333;stroke-width:1;"/><line style="stroke:#333333;stroke-width:1;" x1="527.2686" x2="817.5776" y1="1144.8203" y2="1144.8203"/><text fill="#000000" font-family="Tahoma" font-size="13" lengthAdjust="spacing" textLength="218.1436" x="534.2686" y="1140.1353">Create AuditLog (DELETE_COMMENT)</text><polygon fill="#333333" points="972.084,1170.5117,982.084,1174.5117,972.084,1178.5117,976.084,1174.5117" style="stroke:#333333;stroke-width:1;"/><line style="stroke:#333333;stroke-width:1;" x1="823.5776" x2="978.084" y1="1174.5117" y2="1174.5117"/><text fill="#000000" font-family="Tahoma" font-size="13" lengthAdjust="spacing" textLength="43.7227" x="830.5776" y="1169.8267">INSERT</text><polygon fill="#333333" points="51.146,1200.2031,41.146,1204.2031,51.146,1208.2031,47.146,1204.2031" style="stroke:#333333;stroke-width:1;"/><line style="stroke:#333333;stroke-width:1;stroke-dasharray:2.0,2.0;" x1="45.146" x2="521.2686" y1="1204.2031" y2="1204.2031"/><text fill="#000000" font-family="Tahoma" font-size="13" lengthAdjust="spacing" textLength="96.1479" x="57.146" y="1199.5181">Redirect + Toast</text><rect fill="#EEEEEE" height="3" style="stroke:#EEEEEE;stroke-width:1;" width="1027.6206" x="0" y="1233.0488"/><line style="stroke:#000000;stroke-width:1;" x1="0" x2="1027.6206" y1="1233.0488" y2="1233.0488"/><line style="stroke:#000000;stroke-width:1;" x1="0" x2="1027.6206" y1="1236.0488" y2="1236.0488"/><rect fill="#EEEEEE" height="23.6914" style="stroke:#000000;stroke-width:2;" width="148.3989" x="439.6108" y="1222.2031"/><text fill="#000000" font-family="Tahoma" font-size="13" font-weight="bold" lengthAdjust="spacing" textLength="130.5903" x="445.6108" y="1239.2095">UC-35: &#3604;&#3641; Audit Logs</text><polygon fill="#333333" points="226.0845,1273.5859,236.0845,1277.5859,226.0845,1281.5859,230.0845,1277.5859" style="stroke:#333333;stroke-width:1;"/><line style="stroke:#333333;stroke-width:1;" x1="40.146" x2="232.0845" y1="1277.5859" y2="1277.5859"/><text fill="#000000" font-family="Tahoma" font-size="13" lengthAdjust="spacing" textLength="118.4282" x="47.146" y="1272.9009">&#3588;&#3621;&#3636;&#3585;&#3648;&#3617;&#3609;&#3641; "Audit Logs"</text><polygon fill="#333333" points="505.2686,1303.2773,515.2686,1307.2773,505.2686,1311.2773,509.2686,1307.2773" style="stroke:#333333;stroke-width:1;"/><line style="stroke:#333333;stroke-width:1;" x1="238.0845" x2="511.2686" y1="1307.2773" y2="1307.2773"/><text fill="#000000" font-family="Tahoma" font-size="13" lengthAdjust="spacing" textLength="133.999" x="245.0845" y="1302.5923">GET /admin/audit-logs/</text><polygon fill="#333333" points="811.5776,1348.6602,821.5776,1352.6602,811.5776,1356.6602,815.5776,1352.6602" style="stroke:#333333;stroke-width:1;"/><line style="stroke:#333333;stroke-width:1;" x1="527.2686" x2="817.5776" y1="1352.6602" y2="1352.6602"/><text fill="#000000" font-family="Tahoma" font-size="13" lengthAdjust="spacing" textLength="121.748" x="534.2686" y="1332.2837">AuditLog.objects.all()</text><text fill="#000000" font-family="Tahoma" font-size="13" lengthAdjust="spacing" textLength="136.3032" x="534.2686" y="1347.9751">.order_by('-created_at')</text><polygon fill="#333333" points="972.084,1394.043,982.084,1398.043,972.084,1402.043,976.084,1398.043" style="stroke:#333333;stroke-width:1;"/><line style="stroke:#333333;stroke-width:1;" x1="823.5776" x2="978.084" y1="1398.043" y2="1398.043"/><text fill="#000000" font-family="Tahoma" font-size="13" lengthAdjust="spacing" textLength="92.9805" x="830.5776" y="1377.6665">SELECT * FROM</text><text fill="#000000" font-family="Tahoma" font-size="13" lengthAdjust="spacing" textLength="136.5063" x="830.5776" y="1393.3579">custom_admin_auditlog</text><polygon fill="#333333" points="249.0845,1423.7344,239.0845,1427.7344,249.0845,1431.7344,245.0845,1427.7344" style="stroke:#333333;stroke-width:1;"/><line style="stroke:#333333;stroke-width:1;stroke-dasharray:2.0,2.0;" x1="243.0845" x2="521.2686" y1="1427.7344" y2="1427.7344"/><text fill="#000000" font-family="Tahoma" font-size="13" lengthAdjust="spacing" textLength="94.3833" x="255.0845" y="1423.0493">Render log table</text><!--SRC=[hLPHQnj747w_Np6SeP5IP3LIKeo9N6JTNMkGB4Mdk2y6iTAjfAjFjyhjAcun1Xi2QQ6F2SLfARWb15e2RKdewTyS_IMTdPDasR8SF-HUlAUTxzkPRxxPippmmn6Bs10ytcFZG3aYLBjioC5iiO4OCjEGyn0vO9uuzCC-z5WW-S9EXtKF-f4OXrv512A2hmU-MjoN_CcOXrqEHmRWKuuYSPX6hXNfeP-hVezN_P1lYyZZqNJ_0Jsqts2Hyhl-Y8Lg-yg1Qqx5lczNbi8McIgV5pOA6yQnOIXV1HnSArTSBsn2sHlw8JY1E8ICna8X2_-Tl80a_Yc9_qxYDqdyUpBvCOdFalYVP7AInEUqVea_GZ8vJU9N-0uwAdwVnBycyTiPuYMKnvwle2hwXi6w2jCma_YN99uaan-I-0KjaE0rWVyYfbVxOOPIofh099GDeoE-1TE9i3Cyz4nOiujEmR6erj55hM0Ioc9oq14iylR31klpbCDgmCE7BJuS1KpnhIq3UG1PfzHQp9HvGSLbvZsV7ygKRm_fw7M9goOy7aXDvJWRzhrbgfOOHo4QB5H4rQeX5O6GQYcuoKSYIWERDmQIpAXocbvr8NIUdiSKwp29pcu8gVeHTnzLATpQDenI2HvNSiNFu1FwUsyJs_azTHzxTAhxhXjq2p-KIePHXjmMQQvPdb6dSVjFOlamXQ6Hcc0FyL_QBSWphNvUpOMJUUqb_ods4gFIYThJ41Hp4nwvuFY1uX7MKjVsfm3SmW1h6mDSksfNMdFOFDScIeMem9VAyFZY2PShEYLHVaxYE9cWHkVeJH7XR3j-wCk12HbIC7kfZaRTlRQGez71SRwduUqUmMyiJIgcnX9AOAR1t3El5lUuOPLRzW8GpR09bOWJuzGba77gpOhTTdPsTzolicbqTSwni-lQpSi2aJoU7_6kWa-X9TYoHbCB5RH4DDZQCTZntvBuEItE89FwMMQliuc-1DvfTI_iC9bDW3HNkI9Az_DVfDgKHjX4lA5NgDYiKI4QiYuwts0rShr7PibCWQaOpLkxPNe-u6m5V8KanUkdQKcU9L6MdTRaKWHFyLQZUKA6V_6s1TFovT2NLrHQzDnC9lBRaKvIXCVvcrIQUorAZ_JoNde8zwvAT4lFDMstNjspyzQEMzjntOzhk_jQhzVw0wBjSwQ5qVVEsuLxvxqMSV9CcqilJcZhd7Rno_E7rlSM7R1um1KrO4QflVk6QCvf_KvZKle9jlPiPLEwOhXm2tX4lAedf925NcpPu3JhDPY2yqEckeFfomTRa1AqA_LQpTvjVTmEF9WD_iKtNzv-pYymAqUTwP1SW26hHAAYPzNE1vm5GIQx7wxJ_qBjpdUPExak2UErcRgp948wy72NPDuFksEfnB1DARGf1SnWzSS3LRxkAlWV]--></g></svg>