<svg xmlns="http://www.w3.org/2000/svg" xmlns:xlink="http://www.w3.org/1999/xlink" contentStyleType="text/css" height="1377px" preserveAspectRatio="none" style="width:1037px;height:1377px;background:#FFFFFF;" version="1.1" viewBox="0 0 1037 1377" width="1037px" zoomAndPan="magnify"><title>SD-3.1: Admin Flow (Part 1) &#8212; Dashboard &#3649;&#3621;&#3632;&#3592;&#3633;&#3604;&#3585;&#3634;&#3619;&#3612;&#3641;&#3657;&#3651;&#3594;&#3657;</title><defs/><g><text fill="#000000" font-family="Tahoma" font-size="14" font-weight="bold" lengthAdjust="spacing" textLength="394.0576" x="317.7" y="29.0068">SD-3.1: Admin Flow (Part 1) &#8212; Dashboard &#3649;&#3621;&#3632;&#3592;&#3633;&#3604;&#3585;&#3634;&#3619;&#3612;&#3641;&#3657;&#3651;&#3594;&#3657;</text><rect fill="#E3F2FD" height="1327.9414" style="stroke:#181818;stroke-width:0.5;" width="127.2666" x="135.1338" y="43.8984"/><text fill="#000000" font-family="Tahoma" font-size="13" font-weight="bold" lengthAdjust="spacing" textLength="59.1602" x="169.187" y="56.9048">Frontend</text><rect fill="#FCE4EC" height="1327.9414" style="stroke:#181818;stroke-width:0.5;" width="96.457" x="347.5884" y="43.8984"/><text fill="#000000" font-family="Tahoma" font-size="13" font-weight="bold" lengthAdjust="spacing" textLength="55.6118" x="368.011" y="56.9048">Backend</text><rect fill="#FFF8E1" height="1327.9414" style="stroke:#181818;stroke-width:0.5;" width="329.0195" x="561.0142" y="43.8984"/><text fill="#000000" font-family="Tahoma" font-size="13" font-weight="bold" lengthAdjust="spacing" textLength="46.1475" x="702.4502" y="56.9048">Models</text><rect fill="#FFFFFF" height="372.6797" style="stroke:#555555;stroke-width:1;" width="10" x="390.8169" y="241.7695"/><rect fill="#FFFFFF" height="136.1484" style="stroke:#555555;stroke-width:1;" width="10" x="390.8169" y="809.9805"/><rect fill="#FFFFFF" height="207.8398" style="stroke:#555555;stroke-width:1;" width="10" x="390.8169" y="1049.2031"/><line style="stroke:#555555;stroke-width:0.5;stroke-dasharray:5.0,5.0;" x1="40" x2="40" y1="136.6953" y2="1275.043"/><line style="stroke:#555555;stroke-width:0.5;stroke-dasharray:5.0,5.0;" x1="198.1338" x2="198.1338" y1="136.6953" y2="1275.043"/><line style="stroke:#555555;stroke-width:0.5;stroke-dasharray:5.0,5.0;" x1="395.5884" x2="395.5884" y1="136.6953" y2="1275.043"/><line style="stroke:#555555;stroke-width:0.5;stroke-dasharray:5.0,5.0;" x1="598.0142" x2="598.0142" y1="136.6953" y2="1275.043"/><line style="stroke:#555555;stroke-width:0.5;stroke-dasharray:5.0,5.0;" x1="685.7603" x2="685.7603" y1="136.6953" y2="1275.043"/><line style="stroke:#555555;stroke-width:0.5;stroke-dasharray:5.0,5.0;" x1="774.1606" x2="774.1606" y1="136.6953" y2="1275.043"/><line style="stroke:#555555;stroke-width:0.5;stroke-dasharray:5.0,5.0;" x1="851.9067" x2="851.9067" y1="136.6953" y2="1275.043"/><line style="stroke:#555555;stroke-width:0.5;stroke-dasharray:5.0,5.0;" x1="986.3843" x2="986.3843" y1="136.6953" y2="1275.043"/><text fill="#000000" font-family="Tahoma" font-size="14" lengthAdjust="spacing" textLength="64.292" x="5" y="116.9053">&#3612;&#3641;&#3657;&#3604;&#3641;&#3649;&#3621;&#3619;&#3632;&#3610;&#3610;</text><text fill="#000000" font-family="Tahoma" font-size="14" lengthAdjust="spacing" textLength="49.6152" x="12.3384" y="133.8037">(Admin)</text><ellipse cx="40.146" cy="51.3984" fill="#E2E2F0" rx="8" ry="8" style="stroke:#181818;stroke-width:0.5;"/><path d="M40.146,59.3984 L40.146,86.3984 M27.146,67.3984 L53.146,67.3984 M40.146,86.3984 L27.146,101.3984 M40.146,86.3984 L53.146,101.3984 " fill="none" style="stroke:#181818;stroke-width:0.5;"/><text fill="#000000" font-family="Tahoma" font-size="14" lengthAdjust="spacing" textLength="64.292" x="5" y="1288.0498">&#3612;&#3641;&#3657;&#3604;&#3641;&#3649;&#3621;&#3619;&#3632;&#3610;&#3610;</text><text fill="#000000" font-family="Tahoma" font-size="14" lengthAdjust="spacing" textLength="49.6152" x="12.3384" y="1304.9482">(Admin)</text><ellipse cx="40.146" cy="1316.3398" fill="#E2E2F0" rx="8" ry="8" style="stroke:#181818;stroke-width:0.5;"/><path d="M40.146,1324.3398 L40.146,1351.3398 M27.146,1332.3398 L53.146,1332.3398 M40.146,1351.3398 L27.146,1366.3398 M40.146,1351.3398 L53.146,1366.3398 " fill="none" style="stroke:#181818;stroke-width:0.5;"/><rect fill="#FCE4EC" height="64.6953" rx="2.5" ry="2.5" style="stroke:#C62828;stroke-width:0.5;" width="119.2666" x="139.1338" y="71"/><text fill="#000000" font-family="Tahoma" font-size="14" font-style="italic" lengthAdjust="spacing" textLength="73.6914" x="161.9214" y="92.0068">&#171;Template&#187;</text><text fill="#000000" font-family="Tahoma" font-size="14" lengthAdjust="spacing" textLength="105.2666" x="146.1338" y="108.9053">AdminDashboard</text><text fill="#000000" font-family="Tahoma" font-size="14" lengthAdjust="spacing" textLength="30.1738" x="183.6802" y="125.8037">Page</text><rect fill="#FCE4EC" height="64.6953" rx="2.5" ry="2.5" style="stroke:#C62828;stroke-width:0.5;" width="119.2666" x="139.1338" y="1274.043"/><text fill="#000000" font-family="Tahoma" font-size="14" font-style="italic" lengthAdjust="spacing" textLength="73.6914" x="161.9214" y="1295.0498">&#171;Template&#187;</text><text fill="#000000" font-family="Tahoma" font-size="14" lengthAdjust="spacing" textLength="105.2666" x="146.1338" y="1311.9482">AdminDashboard</text><text fill="#000000" font-family="Tahoma" font-size="14" lengthAdjust="spacing" textLength="30.1738" x="183.6802" y="1328.8467">Page</text><rect fill="#FCE4EC" height="47.7969" rx="2.5" ry="2.5" style="stroke:#C62828;stroke-width:0.5;" width="88.457" x="351.5884" y="87.8984"/><text fill="#000000" font-family="Tahoma" font-size="14" font-style="italic" lengthAdjust="spacing" textLength="51.6113" x="370.0112" y="108.9053">&#171;Views&#187;</text><text fill="#000000" font-family="Tahoma" font-size="14" lengthAdjust="spacing" textLength="74.457" x="358.5884" y="125.8037">AdminViews</text><rect fill="#FCE4EC" height="47.7969" rx="2.5" ry="2.5" style="stroke:#C62828;stroke-width:0.5;" width="88.457" x="351.5884" y="1274.043"/><text fill="#000000" font-family="Tahoma" font-size="14" font-style="italic" lengthAdjust="spacing" textLength="51.6113" x="370.0112" y="1295.0498">&#171;Views&#187;</text><text fill="#000000" font-family="Tahoma" font-size="14" lengthAdjust="spacing" textLength="74.457" x="358.5884" y="1311.9482">AdminViews</text><rect fill="#FCE4EC" height="47.7969" rx="2.5" ry="2.5" style="stroke:#C62828;stroke-width:0.5;" width="66.7461" x="565.0142" y="87.8984"/><text fill="#000000" font-family="Tahoma" font-size="14" font-style="italic" lengthAdjust="spacing" textLength="52.7461" x="572.0142" y="108.9053">&#171;Model&#187;</text><text fill="#000000" font-family="Tahoma" font-size="14" lengthAdjust="spacing" textLength="27.8428" x="584.4658" y="125.8037">User</text><rect fill="#FCE4EC" height="47.7969" rx="2.5" ry="2.5" style="stroke:#C62828;stroke-width:0.5;" width="66.7461" x="565.0142" y="1274.043"/><text fill="#000000" font-family="Tahoma" font-size="14" font-style="italic" lengthAdjust="spacing" textLength="52.7461" x="572.0142" y="1295.0498">&#171;Model&#187;</text><text fill="#000000" font-family="Tahoma" font-size="14" lengthAdjust="spacing" textLength="27.8428" x="584.4658" y="1311.9482">User</text><rect fill="#FCE4EC" height="47.7969" rx="2.5" ry="2.5" style="stroke:#C62828;stroke-width:0.5;" width="89.4004" x="641.7603" y="87.8984"/><text fill="#000000" font-family="Tahoma" font-size="14" font-style="italic" lengthAdjust="spacing" textLength="52.7461" x="660.0874" y="108.9053">&#171;Model&#187;</text><text fill="#000000" font-family="Tahoma" font-size="14" lengthAdjust="spacing" textLength="75.4004" x="648.7603" y="125.8037">Tournament</text><rect fill="#FCE4EC" height="47.7969" rx="2.5" ry="2.5" style="stroke:#C62828;stroke-width:0.5;" width="89.4004" x="641.7603" y="1274.043"/><text fill="#000000" font-family="Tahoma" font-size="14" font-style="italic" lengthAdjust="spacing" textLength="52.7461" x="660.0874" y="1295.0498">&#171;Model&#187;</text><text fill="#000000" font-family="Tahoma" font-size="14" lengthAdjust="spacing" textLength="75.4004" x="648.7603" y="1311.9482">Tournament</text><rect fill="#FCE4EC" height="47.7969" rx="2.5" ry="2.5" style="stroke:#C62828;stroke-width:0.5;" width="66.7461" x="741.1606" y="87.8984"/><text fill="#000000" font-family="Tahoma" font-size="14" font-style="italic" lengthAdjust="spacing" textLength="52.7461" x="748.1606" y="108.9053">&#171;Model&#187;</text><text fill="#000000" font-family="Tahoma" font-size="14" lengthAdjust="spacing" textLength="41.125" x="753.9712" y="125.8037">Report</text><rect fill="#FCE4EC" height="47.7969" rx="2.5" ry="2.5" style="stroke:#C62828;stroke-width:0.5;" width="66.7461" x="741.1606" y="1274.043"/><text fill="#000000" font-family="Tahoma" font-size="14" font-style="italic" lengthAdjust="spacing" textLength="52.7461" x="748.1606" y="1295.0498">&#171;Model&#187;</text><text fill="#000000" font-family="Tahoma" font-size="14" lengthAdjust="spacing" textLength="41.125" x="753.9712" y="1311.9482">Report</text><rect fill="#FCE4EC" height="47.7969" rx="2.5" ry="2.5" style="stroke:#C62828;stroke-width:0.5;" width="68.127" x="817.9067" y="87.8984"/><text fill="#000000" font-family="Tahoma" font-size="14" font-style="italic" lengthAdjust="spacing" textLength="52.7461" x="825.5972" y="108.9053">&#171;Model&#187;</text><text fill="#000000" font-family="Tahoma" font-size="14" lengthAdjust="spacing" textLength="54.127" x="824.9067" y="125.8037">AuditLog</text><rect fill="#FCE4EC" height="47.7969" rx="2.5" ry="2.5" style="stroke:#C62828;stroke-width:0.5;" width="68.127" x="817.9067" y="1274.043"/><text fill="#000000" font-family="Tahoma" font-size="14" font-style="italic" lengthAdjust="spacing" textLength="52.7461" x="825.5972" y="1295.0498">&#171;Model&#187;</text><text fill="#000000" font-family="Tahoma" font-size="14" lengthAdjust="spacing" textLength="54.127" x="824.9067" y="1311.9482">AuditLog</text><text fill="#000000" font-family="Tahoma" font-size="14" lengthAdjust="spacing" textLength="71.0732" x="948.3843" y="133.8037">PostgreSQL</text><path d="M968.9209,83.7969 C968.9209,73.7969 986.9209,73.7969 986.9209,73.7969 C986.9209,73.7969 1004.9209,73.7969 1004.9209,83.7969 L1004.9209,109.7969 C1004.9209,119.7969 986.9209,119.7969 986.9209,119.7969 C986.9209,119.7969 968.9209,119.7969 968.9209,109.7969 L968.9209,83.7969 " fill="#E2E2F0" style="stroke:#181818;stroke-width:1.5;"/><path d="M968.9209,83.7969 C968.9209,93.7969 986.9209,93.7969 986.9209,93.7969 C986.9209,93.7969 1004.9209,93.7969 1004.9209,83.7969 " fill="none" style="stroke:#181818;stroke-width:1.5;"/><text fill="#000000" font-family="Tahoma" font-size="14" lengthAdjust="spacing" textLength="71.0732" x="948.3843" y="1288.0498">PostgreSQL</text><path d="M968.9209,1300.9414 C968.9209,1290.9414 986.9209,1290.9414 986.9209,1290.9414 C986.9209,1290.9414 1004.9209,1290.9414 1004.9209,1300.9414 L1004.9209,1326.9414 C1004.9209,1336.9414 986.9209,1336.9414 986.9209,1336.9414 C986.9209,1336.9414 968.9209,1336.9414 968.9209,1326.9414 L968.9209,1300.9414 " fill="#E2E2F0" style="stroke:#181818;stroke-width:1.5;"/><path d="M968.9209,1300.9414 C968.9209,1310.9414 986.9209,1310.9414 986.9209,1310.9414 C986.9209,1310.9414 1004.9209,1310.9414 1004.9209,1300.9414 " fill="none" style="stroke:#181818;stroke-width:1.5;"/><rect fill="#FFFFFF" height="372.6797" style="stroke:#555555;stroke-width:1;" width="10" x="390.8169" y="241.7695"/><rect fill="#FFFFFF" height="136.1484" style="stroke:#555555;stroke-width:1;" width="10" x="390.8169" y="809.9805"/><rect fill="#FFFFFF" height="207.8398" style="stroke:#555555;stroke-width:1;" width="10" x="390.8169" y="1049.2031"/><rect fill="#EEEEEE" height="3" style="stroke:#EEEEEE;stroke-width:1;" width="1030.4575" x="0" y="167.541"/><line style="stroke:#000000;stroke-width:1;" x1="0" x2="1030.4575" y1="167.541" y2="167.541"/><line style="stroke:#000000;stroke-width:1;" x1="0" x2="1030.4575" y1="170.541" y2="170.541"/><rect fill="#EEEEEE" height="23.6914" style="stroke:#000000;stroke-width:2;" width="150.0049" x="440.2263" y="156.6953"/><text fill="#000000" font-family="Tahoma" font-size="13" font-weight="bold" lengthAdjust="spacing" textLength="132.1963" x="446.2263" y="173.7017">UC-26: &#3604;&#3641; Dashboard</text><polygon fill="#333333" points="186.7671,208.0781,196.7671,212.0781,186.7671,216.0781,190.7671,212.0781" style="stroke:#333333;stroke-width:1;"/><line style="stroke:#333333;stroke-width:1;" x1="40.146" x2="192.7671" y1="212.0781" y2="212.0781"/><text fill="#000000" font-family="Tahoma" font-size="13" lengthAdjust="spacing" textLength="134.6211" x="47.146" y="207.3931">&#3648;&#3611;&#3636;&#3604; /admin/dashboard/</text><polygon fill="#333333" points="378.8169,237.7695,388.8169,241.7695,378.8169,245.7695,382.8169,241.7695" style="stroke:#333333;stroke-width:1;"/><line style="stroke:#333333;stroke-width:1;" x1="198.7671" x2="384.8169" y1="241.7695" y2="241.7695"/><text fill="#000000" font-family="Tahoma" font-size="13" lengthAdjust="spacing" textLength="70.5796" x="205.7671" y="237.0845">GET request</text><line style="stroke:#333333;stroke-width:1;" x1="400.8169" x2="442.8169" y1="287.1523" y2="287.1523"/><line style="stroke:#333333;stroke-width:1;" x1="442.8169" x2="442.8169" y1="287.1523" y2="300.1523"/><line style="stroke:#333333;stroke-width:1;" x1="401.8169" x2="442.8169" y1="300.1523" y2="300.1523"/><polygon fill="#333333" points="411.8169,296.1523,401.8169,300.1523,411.8169,304.1523,407.8169,300.1523" style="stroke:#333333;stroke-width:1;"/><text fill="#000000" font-family="Tahoma" font-size="13" lengthAdjust="spacing" textLength="101.7085" x="407.8169" y="266.7759">@admin_required</text><text fill="#000000" font-family="Tahoma" font-size="13" lengthAdjust="spacing" textLength="140.0737" x="407.8169" y="282.4673">&#3605;&#3619;&#3623;&#3592;&#3626;&#3629;&#3610; is_staff = True</text><polygon fill="#333333" points="586.3872,325.8438,596.3872,329.8438,586.3872,333.8438,590.3872,329.8438" style="stroke:#333333;stroke-width:1;"/><line style="stroke:#333333;stroke-width:1;" x1="400.8169" x2="592.3872" y1="329.8438" y2="329.8438"/><text fill="#000000" font-family="Tahoma" font-size="13" lengthAdjust="spacing" textLength="116.4795" x="407.8169" y="325.1587">User.objects.count()</text><polygon fill="#333333" points="974.9209,355.5352,984.9209,359.5352,974.9209,363.5352,978.9209,359.5352" style="stroke:#333333;stroke-width:1;"/><line style="stroke:#333333;stroke-width:1;" x1="598.3872" x2="980.9209" y1="359.5352" y2="359.5352"/><text fill="#000000" font-family="Tahoma" font-size="13" lengthAdjust="spacing" textLength="106.6089" x="605.3872" y="354.8501">SELECT COUNT(*)</text><polygon fill="#333333" points="674.4604,385.2266,684.4604,389.2266,674.4604,393.2266,678.4604,389.2266" style="stroke:#333333;stroke-width:1;"/><line style="stroke:#333333;stroke-width:1;" x1="400.8169" x2="680.4604" y1="389.2266" y2="389.2266"/><text fill="#000000" font-family="Tahoma" font-size="13" lengthAdjust="spacing" textLength="160.6401" x="407.8169" y="384.5415">Tournament.objects.count()</text><polygon fill="#333333" points="974.9209,414.918,984.9209,418.918,974.9209,422.918,978.9209,418.918" style="stroke:#333333;stroke-width:1;"/><line style="stroke:#333333;stroke-width:1;" x1="686.4604" x2="980.9209" y1="418.918" y2="418.918"/><text fill="#000000" font-family="Tahoma" font-size="13" lengthAdjust="spacing" textLength="106.6089" x="693.4604" y="414.2329">SELECT COUNT(*)</text><polygon fill="#333333" points="762.5337,460.3008,772.5337,464.3008,762.5337,468.3008,766.5337,464.3008" style="stroke:#333333;stroke-width:1;"/><line style="stroke:#333333;stroke-width:1;" x1="400.8169" x2="768.5337" y1="464.3008" y2="464.3008"/><text fill="#000000" font-family="Tahoma" font-size="13" lengthAdjust="spacing" textLength="117.8887" x="407.8169" y="443.9243">Report.objects.filter(</text><text fill="#000000" font-family="Tahoma" font-size="13" lengthAdjust="spacing" textLength="145.9517" x="407.8169" y="459.6157">status='pending').count()</text><polygon fill="#333333" points="974.9209,505.6836,984.9209,509.6836,974.9209,513.6836,978.9209,509.6836" style="stroke:#333333;stroke-width:1;"/><line style="stroke:#333333;stroke-width:1;" x1="774.5337" x2="980.9209" y1="509.6836" y2="509.6836"/><text fill="#000000" font-family="Tahoma" font-size="13" lengthAdjust="spacing" textLength="106.6089" x="781.5337" y="489.3071">SELECT COUNT(*)</text><text fill="#000000" font-family="Tahoma" font-size="13" lengthAdjust="spacing" textLength="142.4033" x="781.5337" y="504.9985">WHERE status='pending'</text><polygon fill="#333333" points="839.9702,535.375,849.9702,539.375,839.9702,543.375,843.9702,539.375" style="stroke:#333333;stroke-width:1;"/><line style="stroke:#333333;stroke-width:1;" x1="400.8169" x2="845.9702" y1="539.375" y2="539.375"/><text fill="#000000" font-family="Tahoma" font-size="13" lengthAdjust="spacing" textLength="150.4902" x="407.8169" y="534.6899">AuditLog.objects.all()[:10]</text><polygon fill="#333333" points="974.9209,565.0664,984.9209,569.0664,974.9209,573.0664,978.9209,569.0664" style="stroke:#333333;stroke-width:1;"/><line style="stroke:#333333;stroke-width:1;" x1="851.9702" x2="980.9209" y1="569.0664" y2="569.0664"/><text fill="#000000" font-family="Tahoma" font-size="13" lengthAdjust="spacing" textLength="110.9507" x="858.9702" y="564.3813">SELECT * LIMIT 10</text><polygon fill="#333333" points="209.7671,610.4492,199.7671,614.4492,209.7671,618.4492,205.7671,614.4492" style="stroke:#333333;stroke-width:1;"/><line style="stroke:#333333;stroke-width:1;stroke-dasharray:2.0,2.0;" x1="203.7671" x2="394.8169" y1="614.4492" y2="614.4492"/><text fill="#000000" font-family="Tahoma" font-size="13" lengthAdjust="spacing" textLength="106.5645" x="215.7671" y="594.0728">Render Dashboard</text><text fill="#000000" font-family="Tahoma" font-size="13" lengthAdjust="spacing" textLength="158.3423" x="215.7671" y="609.7642">(stats_cards, activity_table)</text><polygon fill="#333333" points="186.7671,687.2148,196.7671,691.2148,186.7671,695.2148,190.7671,691.2148" style="stroke:#333333;stroke-width:1;"/><line style="stroke:#333333;stroke-width:1;" x1="40.146" x2="192.7671" y1="691.2148" y2="691.2148"/><text fill="#000000" font-family="Tahoma" font-size="13" lengthAdjust="spacing" textLength="81.5864" x="47.146" y="639.4556">&#3604;&#3641; Stats Cards:</text><text fill="#000000" font-family="Tahoma" font-size="13" lengthAdjust="spacing" textLength="103.2446" x="47.146" y="655.147">- Total Users: 156</text><text fill="#000000" font-family="Tahoma" font-size="13" lengthAdjust="spacing" textLength="107.4531" x="47.146" y="670.8384">- Tournaments: 42</text><text fill="#000000" font-family="Tahoma" font-size="13" lengthAdjust="spacing" textLength="118.4409" x="47.146" y="686.5298">- Pending Reports: 7</text><rect fill="#EEEEEE" height="3" style="stroke:#EEEEEE;stroke-width:1;" width="1030.4575" x="0" y="720.0605"/><line style="stroke:#000000;stroke-width:1;" x1="0" x2="1030.4575" y1="720.0605" y2="720.0605"/><line style="stroke:#000000;stroke-width:1;" x1="0" x2="1030.4575" y1="723.0605" y2="723.0605"/><rect fill="#EEEEEE" height="23.6914" style="stroke:#000000;stroke-width:2;" width="198.0503" x="416.2036" y="709.2148"/><text fill="#000000" font-family="Tahoma" font-size="13" font-weight="bold" lengthAdjust="spacing" textLength="180.2417" x="422.2036" y="726.2212">UC-27: &#3604;&#3641;&#3619;&#3634;&#3618;&#3594;&#3639;&#3656;&#3629;&#3649;&#3621;&#3632;&#3588;&#3657;&#3609;&#3627;&#3634;&#3612;&#3641;&#3657;&#3651;&#3594;&#3657;</text><polygon fill="#333333" points="186.7671,760.5977,196.7671,764.5977,186.7671,768.5977,190.7671,764.5977" style="stroke:#333333;stroke-width:1;"/><line style="stroke:#333333;stroke-width:1;" x1="40.146" x2="192.7671" y1="764.5977" y2="764.5977"/><text fill="#000000" font-family="Tahoma" font-size="13" lengthAdjust="spacing" textLength="89.959" x="47.146" y="759.9126">&#3588;&#3621;&#3636;&#3585;&#3648;&#3617;&#3609;&#3641; "Users"</text><polygon fill="#333333" points="378.8169,805.9805,388.8169,809.9805,378.8169,813.9805,382.8169,809.9805" style="stroke:#333333;stroke-width:1;"/><line style="stroke:#333333;stroke-width:1;" x1="198.7671" x2="384.8169" y1="809.9805" y2="809.9805"/><text fill="#000000" font-family="Tahoma" font-size="13" lengthAdjust="spacing" textLength="108.0625" x="205.7671" y="789.604">GET /admin/users/</text><text fill="#000000" font-family="Tahoma" font-size="13" lengthAdjust="spacing" textLength="86.1885" x="205.7671" y="805.2954">?q=...&amp;role=...</text><polygon fill="#333333" points="586.3872,867.0547,596.3872,871.0547,586.3872,875.0547,590.3872,871.0547" style="stroke:#333333;stroke-width:1;"/><line style="stroke:#333333;stroke-width:1;" x1="400.8169" x2="592.3872" y1="871.0547" y2="871.0547"/><text fill="#000000" font-family="Tahoma" font-size="13" lengthAdjust="spacing" textLength="105.5552" x="407.8169" y="834.9868">User.objects.filter(</text><text fill="#000000" font-family="Tahoma" font-size="13" lengthAdjust="spacing" textLength="161.8462" x="407.8169" y="850.6782">Q(username__icontains=q))</text><text fill="#000000" font-family="Tahoma" font-size="13" lengthAdjust="spacing" textLength="61.4009" x="407.8169" y="866.3696">.filter(role)</text><polygon fill="#333333" points="974.9209,896.7461,984.9209,900.7461,974.9209,904.7461,978.9209,900.7461" style="stroke:#333333;stroke-width:1;"/><line style="stroke:#333333;stroke-width:1;" x1="598.3872" x2="980.9209" y1="900.7461" y2="900.7461"/><text fill="#000000" font-family="Tahoma" font-size="13" lengthAdjust="spacing" textLength="107.7959" x="605.3872" y="896.061">SELECT with filters</text><polygon fill="#333333" points="209.7671,942.1289,199.7671,946.1289,209.7671,950.1289,205.7671,946.1289" style="stroke:#333333;stroke-width:1;"/><line style="stroke:#333333;stroke-width:1;stroke-dasharray:2.0,2.0;" x1="203.7671" x2="394.8169" y1="946.1289" y2="946.1289"/><text fill="#000000" font-family="Tahoma" font-size="13" lengthAdjust="spacing" textLength="89.667" x="215.7671" y="925.7524">Render user list</text><text fill="#000000" font-family="Tahoma" font-size="13" lengthAdjust="spacing" textLength="108.5195" x="215.7671" y="941.4438">with search &amp; filter</text><rect fill="#EEEEEE" height="3" style="stroke:#EEEEEE;stroke-width:1;" width="1030.4575" x="0" y="974.9746"/><line style="stroke:#000000;stroke-width:1;" x1="0" x2="1030.4575" y1="974.9746" y2="974.9746"/><line style="stroke:#000000;stroke-width:1;" x1="0" x2="1030.4575" y1="977.9746" y2="977.9746"/><rect fill="#EEEEEE" height="23.6914" style="stroke:#000000;stroke-width:2;" width="241.9443" x="394.2566" y="964.1289"/><text fill="#000000" font-family="Tahoma" font-size="13" font-weight="bold" lengthAdjust="spacing" textLength="224.1357" x="400.2566" y="981.1353">UC-28 &amp; UC-29: &#3619;&#3632;&#3591;&#3633;&#3610;/&#3611;&#3621;&#3604;&#3619;&#3632;&#3591;&#3633;&#3610;&#3612;&#3641;&#3657;&#3651;&#3594;&#3657;</text><polygon fill="#333333" points="186.7671,1015.5117,196.7671,1019.5117,186.7671,1023.5117,190.7671,1019.5117" style="stroke:#333333;stroke-width:1;"/><line style="stroke:#333333;stroke-width:1;" x1="40.146" x2="192.7671" y1="1019.5117" y2="1019.5117"/><text fill="#000000" font-family="Tahoma" font-size="13" lengthAdjust="spacing" textLength="128.5083" x="47.146" y="1014.8267">&#3585;&#3604;&#3611;&#3640;&#3656;&#3617; "Ban" / "Unban"</text><polygon fill="#333333" points="378.8169,1045.2031,388.8169,1049.2031,378.8169,1053.2031,382.8169,1049.2031" style="stroke:#333333;stroke-width:1;"/><line style="stroke:#333333;stroke-width:1;" x1="198.7671" x2="384.8169" y1="1049.2031" y2="1049.2031"/><text fill="#000000" font-family="Tahoma" font-size="13" lengthAdjust="spacing" textLength="173.0498" x="205.7671" y="1044.5181">POST /admin/users/{pk}/ban/</text><polygon fill="#333333" points="586.3872,1074.8945,596.3872,1078.8945,586.3872,1082.8945,590.3872,1078.8945" style="stroke:#333333;stroke-width:1;"/><line style="stroke:#333333;stroke-width:1;" x1="400.8169" x2="592.3872" y1="1078.8945" y2="1078.8945"/><text fill="#000000" font-family="Tahoma" font-size="13" lengthAdjust="spacing" textLength="173.5703" x="407.8169" y="1074.2095">user = get_object_or_404(pk)</text><polygon fill="#333333" points="586.3872,1104.5859,596.3872,1108.5859,586.3872,1112.5859,590.3872,1108.5859" style="stroke:#333333;stroke-width:1;"/><line style="stroke:#333333;stroke-width:1;" x1="400.8169" x2="592.3872" y1="1108.5859" y2="1108.5859"/><text fill="#000000" font-family="Tahoma" font-size="13" lengthAdjust="spacing" textLength="155.7271" x="407.8169" y="1103.9009">&#3605;&#3619;&#3623;&#3592;&#3626;&#3629;&#3610; user.is_superuser</text><polygon fill="#333333" points="586.3872,1134.2773,596.3872,1138.2773,586.3872,1142.2773,590.3872,1138.2773" style="stroke:#333333;stroke-width:1;"/><line style="stroke:#333333;stroke-width:1;" x1="400.8169" x2="592.3872" y1="1138.2773" y2="1138.2773"/><text fill="#000000" font-family="Tahoma" font-size="13" lengthAdjust="spacing" textLength="155.981" x="407.8169" y="1133.5923">user.is_active = False/True</text><polygon fill="#333333" points="974.9209,1163.9688,984.9209,1167.9688,974.9209,1171.9688,978.9209,1167.9688" style="stroke:#333333;stroke-width:1;"/><line style="stroke:#333333;stroke-width:1;" x1="598.3872" x2="980.9209" y1="1167.9688" y2="1167.9688"/><text fill="#000000" font-family="Tahoma" font-size="13" lengthAdjust="spacing" textLength="108.5957" x="605.3872" y="1163.2837">UPDATE auth_user</text><polygon fill="#333333" points="839.9702,1193.6602,849.9702,1197.6602,839.9702,1201.6602,843.9702,1197.6602" style="stroke:#333333;stroke-width:1;"/><line style="stroke:#333333;stroke-width:1;" x1="400.8169" x2="845.9702" y1="1197.6602" y2="1197.6602"/><text fill="#000000" font-family="Tahoma" font-size="13" lengthAdjust="spacing" textLength="176.1284" x="407.8169" y="1192.9751">Create AuditLog (BAN/UNBAN)</text><polygon fill="#333333" points="974.9209,1223.3516,984.9209,1227.3516,974.9209,1231.3516,978.9209,1227.3516" style="stroke:#333333;stroke-width:1;"/><line style="stroke:#333333;stroke-width:1;" x1="851.9702" x2="980.9209" y1="1227.3516" y2="1227.3516"/><text fill="#000000" font-family="Tahoma" font-size="13" lengthAdjust="spacing" textLength="43.7227" x="858.9702" y="1222.6665">INSERT</text><polygon fill="#333333" points="51.146,1253.043,41.146,1257.043,51.146,1261.043,47.146,1257.043" style="stroke:#333333;stroke-width:1;"/><line style="stroke:#333333;stroke-width:1;stroke-dasharray:2.0,2.0;" x1="45.146" x2="394.8169" y1="1257.043" y2="1257.043"/><text fill="#000000" font-family="Tahoma" font-size="13" lengthAdjust="spacing" textLength="96.1479" x="57.146" y="1252.3579">Redirect + Toast</text><!--SRC=[ZLPTRnf757tVNt65fOHDQp3OSLmKtFAnj9Om8R0u3wL20pl0niiidfajhQ98YLgfQP_JXwPzIQEeKgjARHMfoxzPzPVqpYpW1MmhAmIxSyyzitFFkTSMvowR4aucuD0X2JnPyvbia0c5b4t6_eIa3B62Y35n_9dBHZ0adg29I9yCpaVS3vXJyJsVmwEnAvDnGIy2oWOKdXY0LubpVnOZT_RrfPVhxf3MNKRBFdSeNyJlwal7cuHBT-1E2PFbZGrtQXNhmAfimP9CbSFyKVx8U6eOqfKUXNPrTp-JAq39cRWCQfu_WxJAXPm9_prx2LKYndsVS0UY-VCeV1k5VqNXYoZyEmfVHY6k_1E5RwBmboYSH_Fle_atKVW3tXW66KZSBtKPKlZvakIDvdc5dovBwxtD51019SFe-rz1giPH0igS5EnO-xLyhQeFDRqy5AHqrkhrkgn9HZJcg3RX_dsRJgOUaVJus40UGDO5jQfQp9merpRpcKjd8kOxGphzkCLrwZlK4uggLZkoSjjK7K6v9kcS8ec68yaMpFO3pj1mJ6gmVIEuHQS-Zu6j6u6bm75btH_5fwWdeAjJE4IIFX7ezAOlv8ZJziEwXbVBXb4iGgUocpyiG2nUmWp5ec6KOFTO5nlZysTH-7CKlaCWP8cgNzPPWhE60Ydi6K8_jMpWgXE4r2PnlqIHC1JtnDaAzubcwIceoodg6uK_Qj_yflttUnJ-YUu1L_I49CCX5C7c0JKID5Zo0YW1Cdx_CHr8aHbWhyYqgJ4OHKorZ9YsLRSgDbGUT1fs-ewPeB0LnQKuLnBPxqFKKaInS2kIeUj9ojDTXWUGWIZUdg8iE5XkcslyhMlvk-pHPrRBWityP2dhcBRqmMfdudbfy_D2Rk-B65hVtE4Er4zEJsp8xLqMT2Ls2xUX71AjbrPl87e3V10VWXRLbL_tq5eUDGs79cLUiqrigxRAXehABdJPBXPS4ayh9mgGktiOhor5mBM3l5fgniTTb1MNxwqiUs_9hHs38-fNDPR2VwFv2-MRoqdshPvCFqNX7ngsESQsV8u9AlET6dtAywzryZnkT97QSlgY5m8LpNRPnnV5J2PpY_iULJVN-7_Rk2khF4mhAbM8NiyTu8maBXF52nEzi0GfykiiFdFb66ASk5POjGDuhf1Tfl624ZuOmwr5ugQUYv8V8K3zVgIg58_tx_IVYLTPFHhUQa7M0kzJx-Sw3VD3hTrhDRzP2h9OSTR7kxMADn-qDqh-P7h-D8kux4sbrWSkmeZANbpmdizx1ti7wUcvkOczUWefXemQHS6KSlLmrHOAeD-2ucOrzSz3Le-i3QawpMh9je04SjpReDBTNE5K7sFHr90kbnhPJWE_pSrkFccqhPQz9hIMsS69Ef3m0NOLmJ6yBkZ_]--></g></svg>